<svg id="Layer_1" data-name="Layer 1" xmlns="http://www.w3.org/2000/svg" viewBox="0 0 246.88 266"><defs><style>.cls-1{fill:#e4edfd;}.cls-2{fill:#deeafa;}.cls-3{fill:#fffcfc;}.cls-4{opacity:0.2;isolation:isolate;}.cls-5{fill:#0e5fed;}.cls-6{fill:#fff;}.cls-7{opacity:0.1;}.cls-8{fill:#493865;}.cls-9{fill:#bdc8e0;}.cls-10{fill:#eeb6a5;}.cls-11{fill:#e9aa97;}.cls-12{fill:#022e5d;}.cls-13{fill:#022e5b;}.cls-14{fill:#cc9a8f;}.cls-15{fill:#135384;}.cls-16{fill:#0069db;}.cls-17{fill:#6799e8;}.cls-18{fill:#6ea0fc;}.cls-19{fill:#0e6ded;}.cls-20{fill:#18387f;}.cls-21{fill:#6bac66;}</style></defs><title>Start page 1</title><g id="Man_with_comp" data-name="Man with comp"><g id="Path_3086" data-name="Path 3086"><path class="cls-1" d="M65.16,232.32c-6.92-21.36-11.41-45.45-9.85-70.53,1.78-28.74,10.21-56.62,38.65-40.44,52.21,29.7,52.74,29.7,85.05-16.62,10.77-15.45,25.43-32.33,37.22-38.93C245.85,49.22,278,89.4,291,138.17,305,190.94,312,258,270.35,287.72c-73.9,52.74-77.65-5.06-101.46,24.44s-43.06,10.28-58.89,2.13C97.59,307.89,83.9,290.25,65.16,232.32Z" transform="translate(-55 -62)"/></g><g id="Group_481" data-name="Group 481"><g id="Path_3087" data-name="Path 3087"><path class="cls-2" d="M282.82,205.42,231.07,220a6.94,6.94,0,0,1-5.19-.57l-81-43.5a1.12,1.12,0,0,1-.46-1.52,1.11,1.11,0,0,1,.66-.54L185,161.67a1.08,1.08,0,0,1,.77,0L283,203.3a1.13,1.13,0,0,1,.59,1.48,1.15,1.15,0,0,1-.74.64Z" transform="translate(-55 -62)"/></g><g id="Path_3088" data-name="Path 3088"><path class="cls-3" d="M290,206.27,238.2,220.84a6.91,6.91,0,0,1-5.18-.57l-81-43.5a1.12,1.12,0,0,1-.46-1.52,1.14,1.14,0,0,1,.66-.54l39.9-12.18a1.1,1.1,0,0,1,.78,0l97.19,41.59a1.12,1.12,0,0,1,.58,1.48,1.15,1.15,0,0,1-.72.64Z" transform="translate(-55 -62)"/></g><g id="Path_3089" data-name="Path 3089" class="cls-4"><path class="cls-5" d="M178.33,176.63S193,172.08,195,172.25s32.27,14.17,34.3,14.32-1.37,1.22-6.32,3c-1.22.45-8.11,2.54-10.47,3.4a6.72,6.72,0,0,1-5.48-.38C199.57,188.69,179.17,177.76,178.33,176.63Z" transform="translate(-55 -62)"/></g><g id="Path_3090" data-name="Path 3090" class="cls-4"><path class="cls-5" d="M206.82,174.43l3.86-1.22,35.11,14.59-2.93,2Z" transform="translate(-55 -62)"/></g><g id="Path_3091" data-name="Path 3091"><path class="cls-6" d="M226.62,186.42l-16.76,4.71a2.21,2.21,0,0,1-1.67-.18L182,176.87a.37.37,0,0,1-.15-.5.36.36,0,0,1,.21-.17L195,172.26a.31.31,0,0,1,.25,0l31.46,13.46a.36.36,0,0,1,.19.48.37.37,0,0,1-.23.21Z" transform="translate(-55 -62)"/></g><g id="Group_202" data-name="Group 202" class="cls-7"><g id="Group_201" data-name="Group 201"><g id="Path_3092" data-name="Path 3092"><path class="cls-8" d="M196.57,174.69c-1.07-.45-1.6-.68-2.63-1.1-.16-.06-.16-.15,0-.21.4-.14.6-.2.93-.33a.83.83,0,0,1,.54,0l2.8,1.17c.17.07.2.16.06.2l-1.07.28A1.2,1.2,0,0,1,196.57,174.69Z" transform="translate(-55 -62)"/></g><g id="Path_3093" data-name="Path 3093"><path class="cls-8" d="M198.53,175.52l-1.14-.48c-.16-.07-.15-.17,0-.21.47-.12.69-.17,1.07-.28a1,1,0,0,1,.57.07l1.16.5c.18.07.2.16.06.2l-1.1.26A1.16,1.16,0,0,1,198.53,175.52Z" transform="translate(-55 -62)"/></g><g id="Path_3094" data-name="Path 3094"><path class="cls-8" d="M200.52,176.39l-1.15-.5c-.18-.07-.16-.17,0-.21l1.11-.26a1.11,1.11,0,0,1,.57.07l1.17.51c.17.08.2.16,0,.2l-1.11.26A1.35,1.35,0,0,1,200.52,176.39Z" transform="translate(-55 -62)"/></g><g id="Path_3095" data-name="Path 3095"><path class="cls-8" d="M202.55,177.28l-1.17-.52c-.18-.07-.16-.17,0-.21l1.12-.26a1,1,0,0,1,.57.08l1.18.52c.17.07.21.16.06.2l-1.12.25A1.24,1.24,0,0,1,202.55,177.28Z" transform="translate(-55 -62)"/></g><g id="Path_3096" data-name="Path 3096"><path class="cls-8" d="M204.62,178.2l-1.19-.53c-.18-.08-.17-.18,0-.22l1.12-.26a1,1,0,0,1,.57.08l1.18.51c.18.08.22.17.07.2l-1.11.28A1.24,1.24,0,0,1,204.62,178.2Z" transform="translate(-55 -62)"/></g><g id="Path_3097" data-name="Path 3097"><path class="cls-8" d="M206.71,179.13l-1.2-.54c-.18-.08-.17-.18,0-.23l1.11-.28a1.1,1.1,0,0,1,.57.08l1.2.53c.17.07.22.17.08.2-.38.1-.6.17-1.1.29A1.17,1.17,0,0,1,206.71,179.13Z" transform="translate(-55 -62)"/></g><g id="Path_3098" data-name="Path 3098"><path class="cls-8" d="M208.81,180.07l-1.22-.55c-.18-.08-.17-.18,0-.23l1.09-.29a1,1,0,0,1,.57.07l1.2.53c.17.08.22.17.08.21l-1.08.31A1.14,1.14,0,0,1,208.81,180.07Z" transform="translate(-55 -62)"/></g><g id="Path_3099" data-name="Path 3099"><path class="cls-8" d="M210.93,181l-1.22-.55c-.18-.08-.17-.19,0-.24l1.07-.31a.9.9,0,0,1,.56.07l1.22.53c.18.08.23.17.1.22l-1.07.33A1.18,1.18,0,0,1,210.93,181Z" transform="translate(-55 -62)"/></g><g id="Path_3100" data-name="Path 3100"><path class="cls-8" d="M217.8,184l-1.22-.53c-.19-.08-.18-.2,0-.26.5-.16.73-.23,1.09-.36a1,1,0,0,1,.56.07l1.26.53c.18.08.24.17.1.22l-1.11.36A1.16,1.16,0,0,1,217.8,184Z" transform="translate(-55 -62)"/></g><g id="Path_3101" data-name="Path 3101"><path class="cls-8" d="M219.92,185l-1.22-.52c-.18-.08-.16-.19,0-.25l1.12-.36a1,1,0,0,1,.58.07l1.27.53c.19.08.24.17.1.22l-1.18.34A1.2,1.2,0,0,1,219.92,185Z" transform="translate(-55 -62)"/></g><g id="Path_3102" data-name="Path 3102"><path class="cls-8" d="M222,185.83l-1.2-.5c-.18-.08-.15-.19.05-.25l1.19-.34a.93.93,0,0,1,.59.07l1.29.52c.19.08.24.18.09.21l-1.27.32A1.33,1.33,0,0,1,222,185.83Z" transform="translate(-55 -62)"/></g><g id="Path_3103" data-name="Path 3103"><path class="cls-8" d="M185.86,177.52c-.83-.38-1.2-.55-1.81-.8-.1,0,0-.13.22-.2l1.47-.5a1.08,1.08,0,0,1,.59-.05l1.91.88c.13.07,0,.17-.19.23l-1.55.44A1.16,1.16,0,0,1,185.86,177.52Z" transform="translate(-55 -62)"/></g><g id="Path_3104" data-name="Path 3104"><path class="cls-8" d="M187.46,178.27l-1-.45c-.13-.06-.06-.17.17-.23l1.55-.43a1.13,1.13,0,0,1,.68,0l1,.46c.14.07.07.18-.17.25l-1.56.41A1.13,1.13,0,0,1,187.46,178.27Z" transform="translate(-55 -62)"/></g><g id="Path_3105" data-name="Path 3105"><path class="cls-8" d="M189.26,179.14l-1.06-.51c-.15-.08-.1-.18.13-.25l1.56-.42a1.23,1.23,0,0,1,.71,0l1.05.51c.16.08.1.19-.14.26l-1.56.42A1.09,1.09,0,0,1,189.26,179.14Z" transform="translate(-55 -62)"/></g><g id="Path_3106" data-name="Path 3106"><path class="cls-8" d="M201.79,184.05c-.59.2-.87.3-1.36.49a.94.94,0,0,1-.66,0c-3.92-2.05-6.13-3.18-9.7-5-.17-.09-.13-.2.09-.26l1.55-.42a1.21,1.21,0,0,1,.73,0c3.5,1.75,5.6,2.84,9.42,4.84C202.05,183.83,202,184,201.79,184.05Z" transform="translate(-55 -62)"/></g><g id="Path_3107" data-name="Path 3107"><path class="cls-8" d="M206.17,187.89l-1-.56c-.16-.09-.16-.21,0-.29.47-.2.73-.3,1.32-.51a1,1,0,0,1,.69,0l1,.56c.16.09.09.22-.13.3-.59.21-.86.32-1.33.52A.73.73,0,0,1,206.17,187.89Z" transform="translate(-55 -62)"/></g><g id="Path_3108" data-name="Path 3108"><path class="cls-8" d="M211.17,189.07c-.64.2-.93.3-1.43.49a.75.75,0,0,1-.51,0c-.81-.46-1.29-.72-2.34-1.29-.15-.08-.14-.2,0-.27.46-.2.73-.3,1.32-.52a1,1,0,0,1,.68,0l2.46,1.32C211.52,188.88,211.41,189,211.17,189.07Z" transform="translate(-55 -62)"/></g><g id="Path_3109" data-name="Path 3109"><path class="cls-8" d="M195.53,176.43l-1.6.38a1.26,1.26,0,0,1-.72,0c-1.71-.8-2.51-1.16-3.87-1.75-.12-.06-.05-.15.16-.22l1.36-.43a1.11,1.11,0,0,1,.6,0c1.55.65,2.4,1,4.19,1.83C195.81,176.27,195.76,176.37,195.53,176.43Z" transform="translate(-55 -62)"/></g><g id="Path_3110" data-name="Path 3110"><path class="cls-8" d="M195.06,177.66l-1.08-.52c-.16-.07-.09-.18.15-.24l1.6-.38a1.35,1.35,0,0,1,.72,0l1.11.5c.17.08.11.19-.12.24l-1.64.39A1.33,1.33,0,0,1,195.06,177.66Z" transform="translate(-55 -62)"/></g><g id="Path_3111" data-name="Path 3111"><path class="cls-8" d="M197,178.6l-1.13-.55c-.17-.08-.1-.19.15-.25l1.64-.39a1.34,1.34,0,0,1,.74,0l1.15.53c.17.08.12.2-.12.25l-1.67.4A1.31,1.31,0,0,1,197,178.6Z" transform="translate(-55 -62)"/></g><g id="Path_3112" data-name="Path 3112"><path class="cls-8" d="M199,179.58l-1.17-.57c-.17-.09-.11-.2.14-.26l1.67-.4a1.28,1.28,0,0,1,.75,0l1.19.55c.17.09.12.2-.13.26l-1.68.43A1.35,1.35,0,0,1,199,179.58Z" transform="translate(-55 -62)"/></g><g id="Path_3113" data-name="Path 3113"><path class="cls-8" d="M201.07,180.6l-1.2-.59c-.17-.09-.11-.21.14-.28l1.68-.43a1.44,1.44,0,0,1,.77,0l1.2.57c.17.09.12.21-.12.27l-1.69.45A1.3,1.3,0,0,1,201.07,180.6Z" transform="translate(-55 -62)"/></g><g id="Path_3114" data-name="Path 3114"><path class="cls-8" d="M203.16,181.64,202,181c-.18-.09-.12-.22.13-.29l1.69-.45a1.26,1.26,0,0,1,.77,0l1.22.58c.18.09.12.21-.12.28l-1.7.48A1.33,1.33,0,0,1,203.16,181.64Z" transform="translate(-55 -62)"/></g><g id="Path_3115" data-name="Path 3115"><path class="cls-8" d="M205.25,182.68l-1.2-.6c-.18-.08-.12-.22.13-.3l1.7-.48a1.3,1.3,0,0,1,.78,0l1.21.58c.18.08.13.21-.12.28l-1.71.51A1.25,1.25,0,0,1,205.25,182.68Z" transform="translate(-55 -62)"/></g><g id="Path_3116" data-name="Path 3116"><path class="cls-8" d="M218.08,187.08l-2,.55a1.37,1.37,0,0,1-.8,0c-1.68-.82-2.64-1.3-4.63-2.3-.17-.08-.09-.22.18-.3l1.78-.56a1.3,1.3,0,0,1,.78,0c2.08,1,3.1,1.45,5,2.3C218.49,186.87,218.38,187,218.08,187.08Z" transform="translate(-55 -62)"/></g><g id="Path_3117" data-name="Path 3117"><path class="cls-8" d="M218.72,184.71l2.89,1.23c.17.07.12.18-.13.25l-1.83.47a1.49,1.49,0,0,1-.81,0c-1-.46-1.58-.7-2.67-1.2-.17-.07-.09-.2.17-.28l1.65-.49A1.21,1.21,0,0,1,218.72,184.71Z" transform="translate(-55 -62)"/></g><g id="Path_3118" data-name="Path 3118"><path class="cls-8" d="M216.62,183.79l1.22.53c.18.08.15.2-.08.26l-1.65.5a1.3,1.3,0,0,1-.78,0l-1.16-.54c-.17-.08-.1-.21.14-.28l1.59-.49A1.18,1.18,0,0,1,216.62,183.79Z" transform="translate(-55 -62)"/></g><g id="Path_3119" data-name="Path 3119"><path class="cls-8" d="M209.77,180.74l1.22.55c.18.09.17.2,0,.26l-1.52.45a1.24,1.24,0,0,1-.76,0l-1.21-.57c-.18-.09-.13-.21.1-.28l1.5-.42A1.15,1.15,0,0,1,209.77,180.74Z" transform="translate(-55 -62)"/></g><g id="Path_3120" data-name="Path 3120"><path class="cls-8" d="M207.65,179.79l1.22.55c.18.08.17.19,0,.25l-1.5.42a1.23,1.23,0,0,1-.76,0l-1.22-.57c-.18-.09-.13-.2.1-.27l1.5-.4A1.28,1.28,0,0,1,207.65,179.79Z" transform="translate(-55 -62)"/></g><g id="Path_3121" data-name="Path 3121"><path class="cls-8" d="M205.55,178.85l1.21.54c.18.08.16.19,0,.25l-1.5.4a1.37,1.37,0,0,1-.75,0l-1.2-.57c-.18-.08-.13-.2.1-.26l1.49-.37A1.19,1.19,0,0,1,205.55,178.85Z" transform="translate(-55 -62)"/></g><g id="Path_3122" data-name="Path 3122"><path class="cls-8" d="M203.47,177.92l1.2.53c.18.08.16.19,0,.24l-1.49.37a1.28,1.28,0,0,1-.75-.05l-1.19-.55c-.17-.08-.12-.19.11-.25l1.48-.35A1.17,1.17,0,0,1,203.47,177.92Z" transform="translate(-55 -62)"/></g><g id="Path_3123" data-name="Path 3123"><path class="cls-8" d="M201.42,177l1.18.52c.17.08.15.18,0,.23l-1.48.35a1.24,1.24,0,0,1-.74-.05l-1.16-.53c-.18-.08-.12-.19.1-.24l1.47-.33A1.22,1.22,0,0,1,201.42,177Z" transform="translate(-55 -62)"/></g><g id="Path_3124" data-name="Path 3124"><path class="cls-8" d="M199.41,176.12l1.15.51c.17.08.16.17-.05.22l-1.46.34a1.36,1.36,0,0,1-.72-.05l-1.13-.51c-.17-.07-.12-.18.11-.23l1.43-.33A1.28,1.28,0,0,1,199.41,176.12Z" transform="translate(-55 -62)"/></g><g id="Path_3125" data-name="Path 3125"><path class="cls-8" d="M197.44,175.27l1.13.49c.17.07.15.17,0,.21l-1.43.33a1.39,1.39,0,0,1-.7,0l-1.08-.49c-.16-.07-.11-.17.1-.22l1.38-.33A1.11,1.11,0,0,1,197.44,175.27Z" transform="translate(-55 -62)"/></g><g id="Path_3126" data-name="Path 3126"><path class="cls-8" d="M195.52,174.46l1.1.46c.16.07.15.16-.05.21l-1.37.34a1.27,1.27,0,0,1-.67,0l-1-.45c-.15-.06-.1-.16.1-.21l1.3-.36A1,1,0,0,1,195.52,174.46Z" transform="translate(-55 -62)"/></g><g id="Path_3127" data-name="Path 3127"><path class="cls-8" d="M193.66,173.69l1.06.44c.16.06.15.15,0,.21l-1.29.35a1.12,1.12,0,0,1-.63,0l-1-.41c-.14-.06-.1-.15.08-.21l1.2-.39A1,1,0,0,1,193.66,173.69Z" transform="translate(-55 -62)"/></g><g id="Path_3128" data-name="Path 3128"><path class="cls-8" d="M212.36,186.62l2.37,1.19c.13.07,0,.19-.29.27l-1.91.56a1.12,1.12,0,0,1-.7,0l-2.18-1.16c-.14-.08-.07-.21.18-.29l1.75-.58A1.3,1.3,0,0,1,212.36,186.62Z" transform="translate(-55 -62)"/></g><g id="Path_3129" data-name="Path 3129"><path class="cls-8" d="M210.51,185.69l1.08.55c.16.08.06.21-.2.29l-1.75.58a1,1,0,0,1-.71,0l-1-.55c-.16-.09-.1-.22.14-.3.66-.23,1-.35,1.7-.57A1.23,1.23,0,0,1,210.51,185.69Z" transform="translate(-55 -62)"/></g><g id="Path_3130" data-name="Path 3130"><path class="cls-8" d="M204,182.4l1.2.6c.17.09.11.23-.14.3l-1.66.53a1.08,1.08,0,0,1-.75,0l-1.2-.63c-.18-.09-.14-.23.1-.3l1.66-.5A1.26,1.26,0,0,1,204,182.4Z" transform="translate(-55 -62)"/></g><g id="Path_3131" data-name="Path 3131"><path class="cls-8" d="M213.22,182l-1.23-.54c-.19-.09-.17-.2,0-.25l1.06-.33a.9.9,0,0,1,.56.07l1.22.53c.19.08.24.17.11.22l-1.06.34A1.09,1.09,0,0,1,213.22,182Z" transform="translate(-55 -62)"/></g><g id="Path_3132" data-name="Path 3132"><path class="cls-8" d="M202,185.68l-1.2-.64c-.18-.09-.19-.22,0-.29l1.36-.5a1.11,1.11,0,0,1,.72,0l1.18.62c.17.09.13.23-.09.31-.58.21-.85.31-1.33.51A.81.81,0,0,1,202,185.68Z" transform="translate(-55 -62)"/></g><g id="Path_3133" data-name="Path 3133"><path class="cls-8" d="M207.47,183.79l-1.19-.59c-.17-.09-.11-.23.15-.3l1.71-.52a1.27,1.27,0,0,1,.77,0l1.2.57c.18.09.12.22-.13.3l-1.73.53A1.22,1.22,0,0,1,207.47,183.79Z" transform="translate(-55 -62)"/></g><g id="Path_3134" data-name="Path 3134"><path class="cls-8" d="M212.05,181.76l1.22.55c.19.08.17.2,0,.27l-1.54.47a1.31,1.31,0,0,1-.76,0l-1.2-.57c-.18-.08-.13-.21.11-.28l1.51-.45A1.2,1.2,0,0,1,212.05,181.76Z" transform="translate(-55 -62)"/></g><g id="Path_3135" data-name="Path 3135"><path class="cls-8" d="M206.22,183.52l1.18.6c.17.09.1.23-.15.31l-1.67.55a1,1,0,0,1-.74,0l-1.17-.62c-.17-.09-.13-.23.11-.31l1.66-.53A1.3,1.3,0,0,1,206.22,183.52Z" transform="translate(-55 -62)"/></g><g id="Path_3136" data-name="Path 3136"><path class="cls-8" d="M215.52,183.05l-1.23-.54c-.18-.09-.17-.2,0-.26l1.06-.34a.89.89,0,0,1,.56.06l1.24.54c.19.08.25.17.11.22l-1.07.35A1.13,1.13,0,0,1,215.52,183.05Z" transform="translate(-55 -62)"/></g><g id="Path_3137" data-name="Path 3137"><path class="cls-8" d="M204.19,186.83l-1.14-.6c-.17-.09-.18-.22,0-.3.48-.2.75-.3,1.33-.51a1,1,0,0,1,.71,0l1.13.6c.16.08.11.22-.1.3-.59.21-.86.32-1.32.51A.76.76,0,0,1,204.19,186.83Z" transform="translate(-55 -62)"/></g><g id="Path_3138" data-name="Path 3138"><path class="cls-8" d="M209.64,184.88l-1.16-.58c-.17-.08-.1-.22.16-.3l1.74-.54a1.27,1.27,0,0,1,.77,0l1.19.56c.17.08.11.21-.15.29l-1.77.56A1.22,1.22,0,0,1,209.64,184.88Z" transform="translate(-55 -62)"/></g><g id="Path_3139" data-name="Path 3139"><path class="cls-8" d="M214.34,182.78l1.23.55c.18.08.16.2-.06.26l-1.58.49a1.27,1.27,0,0,1-.77,0l-1.19-.56c-.18-.08-.12-.21.12-.28l1.54-.48A1.22,1.22,0,0,1,214.34,182.78Z" transform="translate(-55 -62)"/></g><g id="Path_3140" data-name="Path 3140"><path class="cls-8" d="M208.41,184.63l1.14.58c.17.08.09.22-.17.31-.7.22-1,.34-1.7.57a1.11,1.11,0,0,1-.72,0l-1.12-.59c-.18-.09-.12-.23.12-.31.64-.22,1-.34,1.67-.56A1.16,1.16,0,0,1,208.41,184.63Z" transform="translate(-55 -62)"/></g><g id="Path_3141" data-name="Path 3141"><path class="cls-8" d="M201.91,181.35l1.2.6c.17.09.11.23-.14.3l-1.66.5a1.16,1.16,0,0,1-.76,0l-1.21-.63c-.18-.09-.14-.23.11-.3l1.67-.48A1.26,1.26,0,0,1,201.91,181.35Z" transform="translate(-55 -62)"/></g><g id="Path_3142" data-name="Path 3142"><path class="cls-8" d="M199.83,180.31l1.2.6c.17.09.11.22-.14.29l-1.67.48a1.23,1.23,0,0,1-.76,0l-1.2-.62c-.18-.09-.13-.22.12-.29l1.67-.46A1.38,1.38,0,0,1,199.83,180.31Z" transform="translate(-55 -62)"/></g><g id="Path_3143" data-name="Path 3143"><path class="cls-8" d="M197.78,179.3l1.18.58c.17.08.11.21-.14.28l-1.68.45a1.23,1.23,0,0,1-.76,0l-1.18-.6c-.17-.09-.12-.21.13-.28l1.68-.43A1.35,1.35,0,0,1,197.78,179.3Z" transform="translate(-55 -62)"/></g><g id="Path_3144" data-name="Path 3144"><path class="cls-8" d="M195.8,178.33l1.13.55c.18.09.1.2-.14.27l-1.69.43a1.28,1.28,0,0,1-.75,0l-1.13-.57c-.17-.09-.1-.2.14-.26l1.68-.42A1.32,1.32,0,0,1,195.8,178.33Z" transform="translate(-55 -62)"/></g><g id="Path_3145" data-name="Path 3145"><path class="cls-8" d="M193.9,177.41l1.08.52c.16.08.1.19-.15.26-.68.16-1,.25-1.68.42a1.34,1.34,0,0,1-.74,0l-1.06-.53c-.16-.07-.09-.18.16-.25l1.66-.41A1.3,1.3,0,0,1,193.9,177.41Z" transform="translate(-55 -62)"/></g><g id="Path_3146" data-name="Path 3146"><path class="cls-8" d="M192.11,176.56l1,.48c.15.08.08.18-.17.24l-1.65.41a1.15,1.15,0,0,1-.71,0l-1-.47c-.14-.07-.06-.17.18-.24l1.61-.41A1.28,1.28,0,0,1,192.11,176.56Z" transform="translate(-55 -62)"/></g><g id="Path_3147" data-name="Path 3147"><path class="cls-8" d="M190.46,175.8l.94.43c.14.07.06.17-.18.23l-1.61.42a1.31,1.31,0,0,1-.68,0l-.87-.42c-.13-.05,0-.15.2-.22l1.55-.43A1.2,1.2,0,0,1,190.46,175.8Z" transform="translate(-55 -62)"/></g><g id="Path_3148" data-name="Path 3148"><path class="cls-8" d="M189,175.14l.84.36c.13.06.05.16-.17.22l-1.55.44a1.22,1.22,0,0,1-.63,0l-.75-.34c-.11-.05,0-.14.2-.21l1.47-.47A1.07,1.07,0,0,1,189,175.14Z" transform="translate(-55 -62)"/></g></g></g><g id="Group_225" data-name="Group 225"><g id="Path_3162" data-name="Path 3162"><path class="cls-2" d="M248.8,137.67l.08,44.27c0,1.32-.83,2-1.85,1.61l-40.17-16.77a2.72,2.72,0,0,1-1.21-2.41l-.12-35.45c0-1.06.53-1.82,1.2-1.69l40.21,7.69A2.75,2.75,0,0,1,248.8,137.67Z" transform="translate(-55 -62)"/></g><g id="Path_3163" data-name="Path 3163"><path class="cls-2" d="M248.87,176.83v5.1c0,1.32-.83,2-1.85,1.62l-40.17-16.77a2.75,2.75,0,0,1-1.21-2.42v-4.09Z" transform="translate(-55 -62)"/></g><g id="Path_3164" data-name="Path 3164"><path class="cls-8" d="M247.4,138.14l.08,44.26c0,1.32-.83,2-1.84,1.62l-40.17-16.77a2.75,2.75,0,0,1-1.21-2.42l-.13-35.44c0-1.06.53-1.82,1.2-1.69l40.22,7.69A2.75,2.75,0,0,1,247.4,138.14Z" transform="translate(-55 -62)"/></g><g id="Path_3165" data-name="Path 3165"><path class="cls-6" d="M245.55,138.62l-39.93-8.24.1,28.9,39.9,14.83Z" transform="translate(-55 -62)"/></g><g id="Path_3166" data-name="Path 3166"><path class="cls-6" d="M247.47,177.3v5.1c0,1.32-.83,2-1.84,1.61l-40.17-16.77a2.72,2.72,0,0,1-1.21-2.41l0-4.09Z" transform="translate(-55 -62)"/></g><g id="Path_3167" data-name="Path 3167"><path class="cls-2" d="M242.92,139.68l-35.57-7.6c-.22-.05-.39.2-.39.54v.9c0,.34.18.66.4.71l35.56,8c.32.07.57-.21.57-.62v-1.09A.89.89,0,0,0,242.92,139.68Z" transform="translate(-55 -62)"/></g><g id="Group_220" data-name="Group 220"><g id="Path_3168" data-name="Path 3168" class="cls-4"><path class="cls-9" d="M231.53,149.48,215.32,145a.55.55,0,0,1-.3-.52l0-5.78c0-.24.13-.41.3-.37l16.21,3.87a.59.59,0,0,1,.35.57v6.3C231.88,149.36,231.72,149.54,231.53,149.48Z" transform="translate(-55 -62)"/></g><g id="Path_3169" data-name="Path 3169"><path class="cls-2" d="M231,149l-15.81-4.32a.72.72,0,0,1-.41-.72l0-5.47c0-.34.18-.57.41-.51L231,141.75a.8.8,0,0,1,.48.79l0,6C231.51,148.86,231.3,149.11,231,149Z" transform="translate(-55 -62)"/></g><g id="Group_219" data-name="Group 219"><g id="Path_3170" data-name="Path 3170"><path class="cls-6" d="M216.2,140.62l-.58-.14a.36.36,0,0,1-.19-.34v-.86c0-.16.09-.27.19-.24l.58.14a.35.35,0,0,1,.19.34v.86C216.39,140.54,216.3,140.65,216.2,140.62Z" transform="translate(-55 -62)"/></g><g id="Path_3171" data-name="Path 3171"><path class="cls-6" d="M216.2,142.33l-.57-.14a.36.36,0,0,1-.2-.34V141c0-.16.09-.27.2-.24l.57.14a.35.35,0,0,1,.2.34v.87C216.4,142.26,216.31,142.36,216.2,142.33Z" transform="translate(-55 -62)"/></g><g id="Path_3172" data-name="Path 3172"><path class="cls-6" d="M216.21,144.05l-.58-.16a.35.35,0,0,1-.19-.34v-.86c0-.16.09-.26.19-.23l.58.15a.35.35,0,0,1,.19.34v.86C216.4,144,216.31,144.08,216.21,144.05Z" transform="translate(-55 -62)"/></g></g><g id="Path_3173" data-name="Path 3173"><path class="cls-8" d="M227.22,143l-9.9-2.46A.55.55,0,0,1,217,140v0c0-.26.14-.43.3-.38l9.9,2.4a.55.55,0,0,1,.35.56v.06C227.56,142.9,227.41,143.08,227.22,143Z" transform="translate(-55 -62)"/></g><g id="Path_3174" data-name="Path 3174"><path class="cls-6" d="M223.81,143.59l-6.56-1.68a.4.4,0,0,1-.23-.4v0c0-.19.1-.32.23-.29l6.56,1.65a.44.44,0,0,1,.25.42v0C224.06,143.49,224,143.62,223.81,143.59Z" transform="translate(-55 -62)"/></g><g id="Path_3175" data-name="Path 3175"><path class="cls-6" d="M218.32,143.61l-1.07-.28a.41.41,0,0,1-.23-.4v0c0-.18.1-.31.23-.28l1.06.28a.4.4,0,0,1,.24.4v0C218.55,143.52,218.44,143.65,218.32,143.61Z" transform="translate(-55 -62)"/></g><g id="Path_3176" data-name="Path 3176"><path class="cls-6" d="M220,144.07l-1.08-.29a.4.4,0,0,1-.24-.4v0c0-.19.1-.32.23-.29l1.09.29a.4.4,0,0,1,.23.4v0C220.27,144,220.17,144.1,220,144.07Z" transform="translate(-55 -62)"/></g><g id="Path_3177" data-name="Path 3177"><path class="cls-6" d="M222,144.58l-1.1-.29a.45.45,0,0,1-.24-.42v0c0-.19.11-.32.24-.29l1.1.29a.4.4,0,0,1,.24.41v0C222.22,144.48,222.11,144.61,222,144.58Z" transform="translate(-55 -62)"/></g><g id="Path_3178" data-name="Path 3178"><path class="cls-6" d="M223.77,145.05l-1.13-.3a.43.43,0,0,1-.24-.42v0c0-.19.1-.32.24-.28l1.13.29a.42.42,0,0,1,.24.42v0C224,145,223.9,145.08,223.77,145.05Z" transform="translate(-55 -62)"/></g></g><g id="Group_222" data-name="Group 222"><g id="Path_3179" data-name="Path 3179" class="cls-4"><path class="cls-9" d="M231.55,158.57l-16.2-5.19a.55.55,0,0,1-.3-.54l0-5.77c0-.24.13-.4.29-.36l16.21,4.6a.63.63,0,0,1,.35.59v6.3C231.9,158.46,231.74,158.63,231.55,158.57Z" transform="translate(-55 -62)"/></g><g id="Path_3180" data-name="Path 3180"><path class="cls-2" d="M231.05,158.09l-15.81-5a.79.79,0,0,1-.41-.74l0-5.46c0-.35.18-.57.41-.5L231,150.82a.85.85,0,0,1,.49.8v6C231.53,158,231.32,158.18,231.05,158.09Z" transform="translate(-55 -62)"/></g><g id="Group_221" data-name="Group 221"><g id="Path_3181" data-name="Path 3181"><path class="cls-6" d="M216.22,149l-.57-.17a.38.38,0,0,1-.2-.35v-.86c0-.16.09-.26.2-.23l.57.16a.38.38,0,0,1,.2.35v.87C216.42,148.94,216.33,149.05,216.22,149Z" transform="translate(-55 -62)"/></g><g id="Path_3182" data-name="Path 3182"><path class="cls-6" d="M216.23,150.73l-.58-.17a.36.36,0,0,1-.19-.35v-.86c0-.15.08-.26.19-.23l.58.17a.39.39,0,0,1,.19.35v.87C216.42,150.66,216.33,150.76,216.23,150.73Z" transform="translate(-55 -62)"/></g><g id="Path_3183" data-name="Path 3183"><path class="cls-6" d="M216.23,152.44l-.58-.18a.37.37,0,0,1-.19-.34v-.87c0-.16.09-.25.19-.23l.58.18a.36.36,0,0,1,.19.35v.86C216.43,152.37,216.34,152.47,216.23,152.44Z" transform="translate(-55 -62)"/></g></g><g id="Path_3184" data-name="Path 3184"><path class="cls-8" d="M227.24,151.92l-9.9-2.9a.55.55,0,0,1-.3-.54v-.06c0-.25.13-.41.3-.36l9.9,2.85a.6.6,0,0,1,.34.58v.06C227.58,151.81,227.43,152,227.24,151.92Z" transform="translate(-55 -62)"/></g><g id="Path_3185" data-name="Path 3185"><path class="cls-6" d="M223.84,152.33l-6.56-2a.42.42,0,0,1-.24-.41v0c0-.19.1-.31.23-.28l6.57,2a.43.43,0,0,1,.24.43v0C224.08,152.24,224,152.37,223.84,152.33Z" transform="translate(-55 -62)"/></g><g id="Path_3186" data-name="Path 3186"><path class="cls-6" d="M218.34,152.1l-1.06-.33a.44.44,0,0,1-.23-.41v0c0-.19.1-.31.22-.27l1.07.32a.45.45,0,0,1,.23.42v0C218.57,152,218.47,152.14,218.34,152.1Z" transform="translate(-55 -62)"/></g><g id="Path_3187" data-name="Path 3187"><path class="cls-6" d="M220.07,152.63,219,152.3a.45.45,0,0,1-.23-.42v0c0-.19.1-.32.23-.28l1.08.33a.44.44,0,0,1,.24.42v0C220.3,152.55,220.19,152.67,220.07,152.63Z" transform="translate(-55 -62)"/></g><g id="Path_3188" data-name="Path 3188"><path class="cls-6" d="M222,153.23l-1.1-.34a.45.45,0,0,1-.24-.43v0c0-.19.11-.31.24-.27l1.1.33a.46.46,0,0,1,.24.43v0C222.24,153.14,222.13,153.27,222,153.23Z" transform="translate(-55 -62)"/></g><g id="Path_3189" data-name="Path 3189"><path class="cls-6" d="M223.79,153.78l-1.13-.34a.49.49,0,0,1-.24-.43v0c0-.2.11-.32.24-.28l1.13.35a.46.46,0,0,1,.25.43v0C224,153.7,223.93,153.82,223.79,153.78Z" transform="translate(-55 -62)"/></g></g><g id="Group_224" data-name="Group 224"><g id="Path_3190" data-name="Path 3190" class="cls-4"><path class="cls-9" d="M231.57,167.21l-16.2-5.88a.61.61,0,0,1-.3-.55l0-5.77c0-.24.13-.4.29-.34l16.2,5.3a.62.62,0,0,1,.35.6l0,6.29C231.92,167.12,231.76,167.28,231.57,167.21Z" transform="translate(-55 -62)"/></g><g id="Path_3191" data-name="Path 3191"><path class="cls-2" d="M231.07,166.71,215.27,161a.81.81,0,0,1-.41-.76l0-5.45c0-.34.18-.56.41-.49l15.81,5.15a.9.9,0,0,1,.48.82v5.95C231.55,166.59,231.34,166.81,231.07,166.71Z" transform="translate(-55 -62)"/></g><g id="Group_223" data-name="Group 223"><g id="Path_3192" data-name="Path 3192"><path class="cls-6" d="M216.25,157l-.58-.19a.37.37,0,0,1-.19-.36v-.85c0-.16.08-.26.19-.23l.58.19a.39.39,0,0,1,.19.35v.87C216.44,156.94,216.35,157,216.25,157Z" transform="translate(-55 -62)"/></g><g id="Path_3193" data-name="Path 3193"><path class="cls-6" d="M216.25,158.71l-.57-.2a.39.39,0,0,1-.2-.35v-.86c0-.16.09-.26.2-.22l.57.19a.4.4,0,0,1,.2.36v.86C216.44,158.65,216.36,158.75,216.25,158.71Z" transform="translate(-55 -62)"/></g><g id="Path_3194" data-name="Path 3194"><path class="cls-6" d="M216.26,160.43l-.58-.2a.41.41,0,0,1-.19-.36V159c0-.16.09-.26.19-.22l.58.2a.39.39,0,0,1,.19.36v.86C216.45,160.36,216.37,160.46,216.26,160.43Z" transform="translate(-55 -62)"/></g></g><g id="Path_3195" data-name="Path 3195"><path class="cls-8" d="M227.26,160.38l-9.9-3.33a.57.57,0,0,1-.3-.55v-.06c0-.25.13-.41.3-.35l9.9,3.27a.65.65,0,0,1,.34.6V160C227.61,160.28,227.45,160.44,227.26,160.38Z" transform="translate(-55 -62)"/></g><g id="Path_3196" data-name="Path 3196"><path class="cls-6" d="M223.86,160.64l-6.56-2.26a.47.47,0,0,1-.24-.42v0c0-.19.1-.3.23-.26l6.56,2.23a.46.46,0,0,1,.25.44v0C224.1,160.56,224,160.68,223.86,160.64Z" transform="translate(-55 -62)"/></g><g id="Path_3197" data-name="Path 3197"><path class="cls-6" d="M218.36,160.17l-1.06-.37a.45.45,0,0,1-.23-.42v0c0-.19.1-.3.23-.25l1.06.36a.47.47,0,0,1,.23.43v0C218.59,160.1,218.49,160.22,218.36,160.17Z" transform="translate(-55 -62)"/></g><g id="Path_3198" data-name="Path 3198"><path class="cls-6" d="M220.09,160.78,219,160.4a.48.48,0,0,1-.23-.43v0c0-.19.1-.31.23-.26l1.08.37a.47.47,0,0,1,.24.43v0C220.32,160.71,220.22,160.83,220.09,160.78Z" transform="translate(-55 -62)"/></g><g id="Path_3199" data-name="Path 3199"><path class="cls-6" d="M222,161.46l-1.1-.39a.5.5,0,0,1-.24-.43v0c0-.19.11-.31.24-.26l1.1.38a.47.47,0,0,1,.24.44v0C222.26,161.39,222.15,161.5,222,161.46Z" transform="translate(-55 -62)"/></g><g id="Path_3200" data-name="Path 3200"><path class="cls-6" d="M223.81,162.09l-1.12-.4a.48.48,0,0,1-.25-.44v0c0-.2.11-.32.25-.27l1.12.39a.48.48,0,0,1,.25.44v0C224.06,162,224,162.14,223.81,162.09Z" transform="translate(-55 -62)"/></g></g></g><g id="Path_3202" data-name="Path 3202"><path class="cls-6" d="M221.81,178.22l-1.88,1.1-.17-.07L216.38,178a.85.85,0,0,1,.56-1.6l.05,0h0l2.77,1.06.17.06,1.72.66Z" transform="translate(-55 -62)"/></g><g id="Path_3203" data-name="Path 3203"><path class="cls-6" d="M228.87,180.93l0-6.29-1.88,1.1,0,6.28,7.25,2.79a.85.85,0,0,0,.73-.06h0a.85.85,0,0,0-.12-1.53Z" transform="translate(-55 -62)"/></g><g id="Path_3204" data-name="Path 3204"><path class="cls-6" d="M221.81,178.22l-1.87,1.1V177.5l0-4.46,1.89-1.1Z" transform="translate(-55 -62)"/></g><g id="Ellipse_57" data-name="Ellipse 57"><ellipse class="cls-6" cx="173.86" cy="128.14" rx="8.7" ry="1.81"/></g><g id="Path_3229" data-name="Path 3229"><path class="cls-6" d="M230,174.4a.24.24,0,0,1-.24-.19c-.21-.81-.42-1-1.73-1.59s-2.3-4.14-2.34-4.29a.25.25,0,0,1,.49-.12c.23.95,1.05,3.5,2.06,3.95,1.37.61,1.75.9,2,1.93a.24.24,0,0,1-.18.3Z" transform="translate(-55 -62)"/></g><g id="Path_3231" data-name="Path 3231"><path class="cls-6" d="M230.26,175.59h0a.24.24,0,0,1-.2-.28,3.73,3.73,0,0,1,2.35-2.88.25.25,0,0,1,.33.14.26.26,0,0,1-.15.33,3.24,3.24,0,0,0-2,2.49A.26.26,0,0,1,230.26,175.59Z" transform="translate(-55 -62)"/></g><g id="Path_3233" data-name="Path 3233"><path class="cls-6" d="M229.51,188.83a.23.23,0,0,1-.2-.1.25.25,0,0,1,0-.35,9.88,9.88,0,0,0,2.89-3.55.25.25,0,1,1,.45.22,10.54,10.54,0,0,1-3,3.73A.3.3,0,0,1,229.51,188.83Z" transform="translate(-55 -62)"/></g><g id="Path_3237" data-name="Path 3237"><path class="cls-6" d="M228.54,178a.25.25,0,0,1-.24-.2c-.11-.52-1.24-.72-1.62-.75a.25.25,0,0,1-.23-.27.25.25,0,0,1,.26-.23c.19,0,1.88.16,2.08,1.15a.26.26,0,0,1-.2.3Z" transform="translate(-55 -62)"/></g><g id="Path_3241" data-name="Path 3241"><path class="cls-6" d="M228.48,184.58a.23.23,0,0,1-.17-.07,2.93,2.93,0,0,0-1.43-.76.24.24,0,0,1-.19-.29.25.25,0,0,1,.29-.2,3.39,3.39,0,0,1,1.68.89.25.25,0,0,1,0,.36A.24.24,0,0,1,228.48,184.58Z" transform="translate(-55 -62)"/></g><g id="Path_3242" data-name="Path 3242"><path class="cls-6" d="M229.62,186a.26.26,0,0,1-.24-.19,9.6,9.6,0,0,1-.27-1.69.26.26,0,0,1,.24-.27.25.25,0,0,1,.26.24,8.73,8.73,0,0,0,.25,1.6.24.24,0,0,1-.18.3Z" transform="translate(-55 -62)"/></g><g id="Path_3243" data-name="Path 3243"><path class="cls-6" d="M231.28,187.1a.23.23,0,0,1-.17-.07.25.25,0,0,1,0-.35c.6-.7,0-2.08,0-2.09a.26.26,0,0,1,.14-.33.24.24,0,0,1,.32.14c0,.07.68,1.68-.13,2.61A.23.23,0,0,1,231.28,187.1Z" transform="translate(-55 -62)"/></g><g id="Path_3244" data-name="Path 3244"><path class="cls-6" d="M230.36,188.25a.26.26,0,0,1-.21-.11.26.26,0,0,1,.08-.35,3.25,3.25,0,0,1,2-.49.25.25,0,0,1,.23.27.24.24,0,0,1-.26.23,2.72,2.72,0,0,0-1.67.42A.35.35,0,0,1,230.36,188.25Z" transform="translate(-55 -62)"/></g><g id="Path_3245" data-name="Path 3245"><path class="cls-6" d="M231,174l-.12,0a.25.25,0,0,1-.09-.34.67.67,0,0,1,.09-.14.91.91,0,0,1,.61-.31.89.89,0,0,1,.64.21.25.25,0,0,1,0,.36.26.26,0,0,1-.36,0,.37.37,0,0,0-.27-.09.39.39,0,0,0-.27.13l0,.06A.23.23,0,0,1,231,174Z" transform="translate(-55 -62)"/></g><g id="Path_3246" data-name="Path 3246"><path class="cls-6" d="M228.74,170.85a.26.26,0,0,1-.25-.24c0-.57.93-1.17,1.23-1.35a.25.25,0,1,1,.25.43c-.52.31-1,.74-1,.9a.25.25,0,0,1-.24.26Z" transform="translate(-55 -62)"/></g><g id="Path_11719" data-name="Path 11719"><path class="cls-10" d="M135.46,139.32l-.62,13.77s7.8-3.3,14.33-.51L149,145l-8.9-7.69Z" transform="translate(-55 -62)"/></g><g id="Path_11720" data-name="Path 11720"><path class="cls-11" d="M139.88,137.46s1.45,3.95,2.12,5.12c1.92,3.34,7,7.51,7.09,6.86s.08-4.47.08-4.47Z" transform="translate(-55 -62)"/></g><g id="Path_11721" data-name="Path 11721"><path class="cls-12" d="M135.46,139.67l-.35-17.44s-1.05-3.14,5.93-3.84,20.58-2.44,21.63-.7.7,8-3.49,7.33-5.65-3.9-11.92-2.51-3.78,9.13-3.78,9.13l-2.91-1a2,2,0,0,0-1.95.6c-.44.35-1.4,1.31-.44,3.22l2.86,2.43Z" transform="translate(-55 -62)"/></g><g id="Path_11722" data-name="Path 11722"><path class="cls-10" d="M157.77,124.9c.53.46.39,4.69,1.43,5.73a6.48,6.48,0,0,0,2.08,1,1.11,1.11,0,0,1,.6,1.46,1.13,1.13,0,0,1-.64.61h0a1.11,1.11,0,0,0-.68,1.35c.67,2.29,1.7,8-3.82,10.19-6.69,2.68-12.1-3-12.53-3.46l-.06-.06-4.12-3.8c-.21-.19-.14-.41.06-.6h0a.62.62,0,0,0-.14-.88.8.8,0,0,0-.16-.08c-1.24-.34-3.23-1.3-2.24-4a2.8,2.8,0,0,1,3.43-2l.28.09c.8.22,1.86,0,1.7-.79a6.46,6.46,0,0,1,.48-4.3C144.87,122,152.19,120,157.77,124.9Z" transform="translate(-55 -62)"/></g><g id="Line_286" data-name="Line 286"><path class="cls-13" d="M153.54,129.13a.37.37,0,0,1-.31-.17.38.38,0,0,1,.1-.52l2.56-1.7a.37.37,0,0,1,.42.62l-2.56,1.71A.39.39,0,0,1,153.54,129.13Z" transform="translate(-55 -62)"/></g><g id="Rectangle_266" data-name="Rectangle 266"><path class="cls-13" d="M155.62,130.16h0a.24.24,0,0,1-.24-.24v-.48a.24.24,0,0,1,.24-.24h0a.24.24,0,0,1,.24.24v.48A.24.24,0,0,1,155.62,130.16Z" transform="translate(-55 -62)"/></g><g id="Path_11723" data-name="Path 11723"><path class="cls-13" d="M158.62,140.37a2.93,2.93,0,0,1-2.93-2.59.37.37,0,0,1,.33-.42.36.36,0,0,1,.41.33,2.2,2.2,0,0,0,2.23,1.93h0a.38.38,0,0,1,.37.37.37.37,0,0,1-.37.38Z" transform="translate(-55 -62)"/></g><g id="Ellipse_98" data-name="Ellipse 98"><circle class="cls-11" cx="100.38" cy="71.98" r="1.91"/></g><g id="Path_11724" data-name="Path 11724"><path class="cls-14" d="M149.63,145.6h0c-2.93-.58-9.39-7.33-9.67-7.62a.25.25,0,0,1,0-.35.24.24,0,0,1,.35,0c.07.07,6.63,6.92,9.41,7.47a.25.25,0,0,1,.19.3A.25.25,0,0,1,149.63,145.6Z" transform="translate(-55 -62)"/></g><g id="Path_11725" data-name="Path 11725"><path class="cls-14" d="M159.3,143.85a.25.25,0,0,1-.18-.08.24.24,0,0,1,0-.35,5.84,5.84,0,0,0,1.7-3.9.26.26,0,0,1,.25-.24.26.26,0,0,1,.25.26,6.3,6.3,0,0,1-1.85,4.23A.25.25,0,0,1,159.3,143.85Z" transform="translate(-55 -62)"/></g><g id="Path_11726" data-name="Path 11726"><path class="cls-14" d="M137.43,134.8a.25.25,0,0,1-.25-.22c-.18-1.73.15-3,1-3.73a3.39,3.39,0,0,1,2.71-.7l.06,0,1,.48a.25.25,0,0,1-.23.45l-.92-.46a2.87,2.87,0,0,0-2.24.58c-.7.64-1,1.75-.81,3.3a.26.26,0,0,1-.22.28Z" transform="translate(-55 -62)"/></g><g id="Path_11727" data-name="Path 11727"><path class="cls-14" d="M140.48,134.33c-.22,0-.72-.17-2-1.11a.25.25,0,1,1,.3-.4,10.82,10.82,0,0,0,1.47,1,11,11,0,0,0-.42-1.62.25.25,0,0,1,.15-.32.25.25,0,0,1,.32.16,11.84,11.84,0,0,1,.49,1.95.36.36,0,0,1-.18.35A.4.4,0,0,1,140.48,134.33Z" transform="translate(-55 -62)"/></g><g id="Line_287" data-name="Line 287"><path class="cls-14" d="M134.84,152.86h0a.25.25,0,0,1-.24-.26l.48-12.9c0-.14.09-.23.26-.24a.26.26,0,0,1,.24.26l-.48,12.9A.26.26,0,0,1,134.84,152.86Z" transform="translate(-55 -62)"/></g><g id="Path_11728" data-name="Path 11728"><path class="cls-15" d="M142.81,128a.24.24,0,0,1-.25-.24s-.06-5.36,7-6a.26.26,0,0,1,.28.22.25.25,0,0,1-.23.27c-6.62.64-6.6,5.34-6.59,5.54a.25.25,0,0,1-.25.25Z" transform="translate(-55 -62)"/></g><g id="Path_11729" data-name="Path 11729"><path class="cls-15" d="M162.78,118.22a.25.25,0,0,1-.25-.25c0-.14-.49-.42-1-.56-1.84-.56-10.35.2-10.43.21a.26.26,0,0,1-.27-.23.24.24,0,0,1,.22-.27c.36,0,8.7-.77,10.62-.19.32.09,1.36.43,1.36,1A.25.25,0,0,1,162.78,118.22Z" transform="translate(-55 -62)"/></g><g id="Group_479" data-name="Group 479"><g id="Path_11730" data-name="Path 11730"><path class="cls-10" d="M182.21,179.89l2.36-1.5a3,3,0,0,0,1.77.79c.87,0,5.62-2.17,5.62-2.17l3.63.32a.69.69,0,0,0,.87-.43h0c.29-.93.3-1.82-1.7-3.3-2.87-2.13-4.41-1.54-4.41-1.54l-9.75,2.88a3.52,3.52,0,0,0,1.31,4.81Z" transform="translate(-55 -62)"/></g><g id="Path_11731" data-name="Path 11731"><path class="cls-11" d="M182.16,179.68s-3.36-3.44-.6-4.93C183.85,173.52,184.73,179.16,182.16,179.68Z" transform="translate(-55 -62)"/></g><g id="Path_11732" data-name="Path 11732"><path class="cls-14" d="M182.67,179.81a.24.24,0,0,1-.12-.46l2-1.12a.23.23,0,0,1,.31.06,1.75,1.75,0,0,0,1.69.61,26.93,26.93,0,0,0,4.44-1.71.25.25,0,0,1,.33.11.26.26,0,0,1-.11.34,28.75,28.75,0,0,1-4.54,1.75,2.23,2.23,0,0,1-2-.63l-1.79,1A.24.24,0,0,1,182.67,179.81Z" transform="translate(-55 -62)"/></g><g id="Path_11733" data-name="Path 11733"><path class="cls-14" d="M185.52,173.76a.25.25,0,0,1-.24-.18.25.25,0,0,1,.17-.31l4.77-1.38a4.6,4.6,0,0,1,2.77.35.26.26,0,0,1,.12.33.25.25,0,0,1-.34.12,4,4,0,0,0-2.44-.31l-4.74,1.37Z" transform="translate(-55 -62)"/></g></g><g id="Group_480" data-name="Group 480"><g id="Path_11734" data-name="Path 11734"><path class="cls-10" d="M196,187.64l2.36-1.5a3,3,0,0,0,1.77.78c.86,0,5.62-2.16,5.62-2.16l3.63.32a.69.69,0,0,0,.87-.43v0c.29-.92.3-1.82-1.7-3.3-2.87-2.12-4.41-1.53-4.41-1.53l-9.75,2.88a3.51,3.51,0,0,0,1.31,4.8A2.85,2.85,0,0,0,196,187.64Z" transform="translate(-55 -62)"/></g><g id="Path_11735" data-name="Path 11735"><path class="cls-11" d="M195.93,187.42s-3.36-3.44-.6-4.92C197.62,181.27,198.5,186.9,195.93,187.42Z" transform="translate(-55 -62)"/></g><g id="Path_11736" data-name="Path 11736"><path class="cls-14" d="M196.44,187.56a.25.25,0,0,1-.22-.12.26.26,0,0,1,.09-.35l2-1.11a.25.25,0,0,1,.32.05,1.76,1.76,0,0,0,1.69.62,26.49,26.49,0,0,0,4.43-1.71.26.26,0,0,1,.34.11.25.25,0,0,1-.11.33,26.71,26.71,0,0,1-4.55,1.75,2.24,2.24,0,0,1-2-.62l-1.79,1A.27.27,0,0,1,196.44,187.56Z" transform="translate(-55 -62)"/></g><g id="Path_11737" data-name="Path 11737"><path class="cls-14" d="M199.29,181.51a.26.26,0,0,1-.24-.18.24.24,0,0,1,.17-.31l4.77-1.38a4.53,4.53,0,0,1,2.77.34.25.25,0,0,1,.12.34.26.26,0,0,1-.33.12,4.06,4.06,0,0,0-2.45-.32l-4.74,1.38Z" transform="translate(-55 -62)"/></g></g><g id="Path_11738" data-name="Path 11738"><path class="cls-16" d="M158.09,180.5l22.12-6.8c.85-.26,1.73.3,2.21,1.41l1.16,2.68c.77,1.77.27,4.17-1,4.93-5.32,3.11-17.58,9.8-21.58,7.75a9.16,9.16,0,0,1-4.35-5.14C155.9,183.39,156.67,180.94,158.09,180.5Z" transform="translate(-55 -62)"/></g><g id="Rectangle_267" data-name="Rectangle 267"><rect class="cls-11" x="129.64" y="226.1" width="6.89" height="9.47"/></g><g id="Path_11739" data-name="Path 11739"><path class="cls-11" d="M217.34,288.1l4,7.71,5.48-2.5-3.93-8.62Z" transform="translate(-55 -62)"/></g><g id="Path_11740" data-name="Path 11740"><path class="cls-17" d="M178.4,224.68l4.51,66,10.13-.57s4.29-70.83,2.72-73.37S188.41,206.78,178.4,224.68Z" transform="translate(-55 -62)"/></g><g id="Path_11741" data-name="Path 11741"><path class="cls-18" d="M143.94,244.84a12.31,12.31,0,0,1-8.57-4.15c-4.88-5.5-10.75-16.63,7.27-21.21,24.6-6.26,49.74-9,51.11-5.66s3.54,14.37-10,18.47C171.74,235.91,157.56,245.58,143.94,244.84Z" transform="translate(-55 -62)"/></g><g id="Path_11742" data-name="Path 11742"><path class="cls-16" d="M134.06,153.24a2.74,2.74,0,0,1,2.48-2.74c4.67-.43,14.62-.68,18.29,4.46,4.87,6.81,11.68,37,10.7,54.48-1,18.33-35.11,17.56-35.11,17.56l.86-55.48Z" transform="translate(-55 -62)"/></g><g id="Path_11743" data-name="Path 11743"><path class="cls-19" d="M135.81,159.92a2.61,2.61,0,0,1,.44-3.36,23.84,23.84,0,0,1,13.43-5.74c6.93-.75,12.06,9.35,14.61,15.81,1.6,4.06,2.66,6.9,4.34,11.36a2.46,2.46,0,0,0,.19.4l4,6.8a2.64,2.64,0,0,0,2.91,1.23l18.92-4.74a2.63,2.63,0,0,1,2.22.45l2.85,2.14a2.62,2.62,0,0,1,.52,3.67,2.47,2.47,0,0,1-.69.64l-11.77,7.52a3.3,3.3,0,0,0-.3.22c-1.5,1.28-15.41,12.8-23.14,4.41C157.25,193.09,140.32,167,135.81,159.92Z" transform="translate(-55 -62)"/></g><g id="Path_11744" data-name="Path 11744"><path class="cls-18" d="M183.75,228.7l33.59,62.84,7.75-5.16S198.77,216,196.29,214.3,185.49,208.26,183.75,228.7Z" transform="translate(-55 -62)"/></g><g id="Path_128-2" data-name="Path 128-2"><path class="cls-20" d="M192.09,294.17l3.15,2.3a2.42,2.42,0,0,0,1.18.46l3,.31a2.31,2.31,0,0,1,1.3.58l1.8,1.65a.53.53,0,0,1,.17.4v.68a.45.45,0,0,1-.46.46h-18a.48.48,0,0,1-.47-.42l-.59-6Z" transform="translate(-55 -62)"/></g><g id="Path_128-2-2" data-name="Path 128-2-2"><path class="cls-20" d="M226.6,289.85l3.89.38a2.44,2.44,0,0,0,1.25-.21l2.76-1.27a2.36,2.36,0,0,1,1.41-.16l2.39.5a.61.61,0,0,1,.35.26l.35.59a.46.46,0,0,1-.16.63h0l-15.53,9.19a.47.47,0,0,1-.62-.13l-3.58-4.89Z" transform="translate(-55 -62)"/></g><g id="Line_288" data-name="Line 288"><path class="cls-13" d="M144.69,304.24h0a2.49,2.49,0,0,1-2.49-2.51l.17-46.15a2.49,2.49,0,0,1,2.5-2.49h0a2.5,2.5,0,0,1,2.49,2.51l-.17,46.15A2.49,2.49,0,0,1,144.69,304.24Z" transform="translate(-55 -62)"/></g><g id="Path_11745" data-name="Path 11745"><path class="cls-21" d="M115.79,171.06s7.74-28.91,20.65-10.15a30.52,30.52,0,0,1,3.84,8.34c6.86,22.28-.4,61.19-.4,61.19s45.62-8.61,47.34,5.16-22.38,24.1-50.78,18.94C89.68,246,115.79,171.06,115.79,171.06Z" transform="translate(-55 -62)"/></g><g id="Path_11746" data-name="Path 11746"><path class="cls-13" d="M144.42,293.21l-9.5,8.5h19Z" transform="translate(-55 -62)"/><path class="cls-13" d="M153.92,304.21h-19a2.5,2.5,0,0,1-1.67-4.37l9.5-8.5a2.49,2.49,0,0,1,3.33,0l9.5,8.5a2.5,2.5,0,0,1-1.66,4.37Zm-12.46-5h5.91l-3-2.65Z" transform="translate(-55 -62)"/></g><g id="Path_11747" data-name="Path 11747"><path class="cls-13" d="M151,258.34a64.72,64.72,0,0,1-27.42-5.89l0,0-.09,0c-.34-.16-8.51-4.08-12.83-14.74a2.5,2.5,0,0,1,4.63-1.88c3.6,8.86,10.25,12.06,10.32,12.09h0l.21.1c3.86,1.89,24.37,10.8,49.52.53a2.5,2.5,0,0,1,1.89,4.63A68.85,68.85,0,0,1,151,258.34Z" transform="translate(-55 -62)"/></g></g></g></svg>