<svg id="Layer_1" data-name="Layer 1" xmlns="http://www.w3.org/2000/svg" viewBox="0 0 269.83 239.79"><defs><style>.cls-1{fill:#e4edfd;}.cls-2{fill:#eeb6a5;}.cls-3{fill:#e9aa97;}.cls-4{fill:#022e5d;}.cls-5{fill:#022e5b;}.cls-6{fill:#cc9a8f;}.cls-7{fill:#2577d8;}.cls-8{fill:#0069db;}.cls-9{fill:#6799e8;}.cls-10{fill:#6ea0fc;}.cls-11{fill:#fb9b05;}.cls-12{fill:#18387f;}.cls-13{fill:#0e6ded;}.cls-14{fill:#135384;}</style></defs><title>start page 2 illustrtion</title><g id="Climbing_man" data-name="Climbing man"><g id="Path_3330" data-name="Path 3330"><path class="cls-1" d="M56.15,237.05c-9.88-16.76-17.8-36.22-20-57.57-2.49-24.46,1.63-49.36,31.72-40.7,55.26,15.89,55.77,15.8,80.45-28.75,8.23-14.85,20-31.58,30.55-39.19,26.42-19.08,63.67,9.11,83.49,47.84,21.44,41.91,38.14,97,1.89,129.27C200,305.12,187.85,257.19,169,286.11s-40.45,16.14-57.08,12C98.87,294.92,82.94,282.47,56.15,237.05Z" transform="translate(-35.56 -64.72)"/></g><g id="Group_478" data-name="Group 478"><g id="Group_477" data-name="Group 477"><g id="Group_473" data-name="Group 473"><g id="Path_11685" data-name="Path 11685"><path class="cls-2" d="M178.31,87l-.5,10.54s4.55,2.11,9.38,4l1.46-10.44L182,85.51Z" transform="translate(-35.56 -64.72)"/></g><g id="Path_11686" data-name="Path 11686"><path class="cls-3" d="M181.79,85.61s1.14,3,1.67,3.92C185,92.09,187.94,95.45,188,95s1.12-3.59,1.12-3.59Z" transform="translate(-35.56 -64.72)"/></g><g id="Path_11687" data-name="Path 11687"><path class="cls-4" d="M178.3,87.3,178,74s-.83-2.4,4.68-2.94,16.23-1.87,17.06-.53.55,6.14-2.75,5.61-4.46-3-9.41-1.92-3,7-3,7l-2.3-.78a1.57,1.57,0,0,0-1.53.46,1.76,1.76,0,0,0-.35,2.47h0l2.26,1.86Z" transform="translate(-35.56 -64.72)"/></g><g id="Path_11688" data-name="Path 11688"><path class="cls-2" d="M195.9,76c.42.35.31,3.58,1.13,4.39a5.73,5.73,0,0,0,1.64.77.84.84,0,0,1,0,1.58h0a.85.85,0,0,0-.54,1c.53,1.75,1.34,6.11-3,7.8-5.28,2-9.55-2.3-9.88-2.65l-.05-.05L181.91,86c-.17-.15-.11-.31.05-.47h0a.47.47,0,0,0-.1-.66l-.14-.07c-1-.25-2.54-1-1.76-3.08a2.22,2.22,0,0,1,2.76-1.49l.16.06c.64.16,1.47,0,1.34-.61a4.8,4.8,0,0,1,.38-3.29C185.73,73.8,191.5,72.26,195.9,76Z" transform="translate(-35.56 -64.72)"/></g><g id="Line_284" data-name="Line 284"><path class="cls-5" d="M192.57,79.32a.37.37,0,0,1-.32-.17.38.38,0,0,1,.11-.52l2-1.3a.37.37,0,0,1,.52.11.38.38,0,0,1-.11.52l-2,1.3A.36.36,0,0,1,192.57,79.32Z" transform="translate(-35.56 -64.72)"/></g><g id="Rectangle_259" data-name="Rectangle 259"><rect class="cls-5" x="158.45" y="14.56" width="0.38" height="0.73" rx="0.19"/></g><g id="Path_11689" data-name="Path 11689"><path class="cls-5" d="M196.53,87.93a2.36,2.36,0,0,1-2.35-2.06.37.37,0,1,1,.74-.1,1.66,1.66,0,0,0,1.68,1.41.36.36,0,0,1,.38.36.37.37,0,0,1-.36.39Z" transform="translate(-35.56 -64.72)"/></g><g id="Ellipse_97" data-name="Ellipse 97"><ellipse class="cls-3" cx="158.45" cy="18.22" rx="1.51" ry="1.46"/></g><g id="Path_11690" data-name="Path 11690"><path class="cls-6" d="M189.48,91.9h0c-2.33-.45-7.43-5.62-7.65-5.84a.25.25,0,1,1,.36-.36c.05.06,5.21,5.29,7.39,5.71a.25.25,0,0,1-.05.5Z" transform="translate(-35.56 -64.72)"/></g><g id="Path_11691" data-name="Path 11691"><path class="cls-6" d="M199.16,81.91a.26.26,0,0,1-.25-.22c0-.23-.32-.51-1-.56a1.66,1.66,0,0,1-1.26-.83,7.63,7.63,0,0,1-.59-2.26.26.26,0,0,1,.23-.28.25.25,0,0,1,.27.23,6.93,6.93,0,0,0,.54,2.09,1.12,1.12,0,0,0,.86.55c1,.07,1.38.56,1.45,1a.25.25,0,0,1-.21.28Z" transform="translate(-35.56 -64.72)"/></g><g id="Path_11692" data-name="Path 11692"><path class="cls-6" d="M197.1,90.56a.26.26,0,0,1-.18-.43,4.35,4.35,0,0,0,1.33-2.95.25.25,0,1,1,.5,0,4.83,4.83,0,0,1-1.48,3.29A.28.28,0,0,1,197.1,90.56Z" transform="translate(-35.56 -64.72)"/></g><g id="Path_11693" data-name="Path 11693"><path class="cls-6" d="M179.86,83.63a.24.24,0,0,1-.25-.22,3.26,3.26,0,0,1,.76-2.89,2.73,2.73,0,0,1,2.2-.56l.06,0,.76.36a.26.26,0,0,1,.11.34.25.25,0,0,1-.33.11l-.72-.35a2.28,2.28,0,0,0-1.75.45,2.8,2.8,0,0,0-.59,2.46.26.26,0,0,1-.23.28Z" transform="translate(-35.56 -64.72)"/></g><g id="Path_11694" data-name="Path 11694"><path class="cls-6" d="M182.27,83.27c-.19,0-.6-.14-1.59-.85a.25.25,0,0,1-.05-.35A.25.25,0,0,1,181,82a10,10,0,0,0,1.06.68,7.79,7.79,0,0,0-.31-1.12.24.24,0,0,1,.15-.32.25.25,0,0,1,.32.15,8.68,8.68,0,0,1,.38,1.5.32.32,0,0,1-.16.33A.27.27,0,0,1,182.27,83.27Z" transform="translate(-35.56 -64.72)"/></g><g id="Line_285" data-name="Line 285"><path class="cls-6" d="M177.81,97.46h0a.25.25,0,0,1-.24-.26l.38-9.88a.24.24,0,0,1,.26-.24.26.26,0,0,1,.24.26l-.38,9.88A.25.25,0,0,1,177.81,97.46Z" transform="translate(-35.56 -64.72)"/></g></g><g id="Rectangle_260" data-name="Rectangle 260"><rect class="cls-7" x="80.29" y="181.78" width="60.53" height="9.17"/></g><g id="Rectangle_261" data-name="Rectangle 261"><rect class="cls-7" x="35.05" y="210.52" width="60.53" height="9.17"/></g><g id="Rectangle_262" data-name="Rectangle 262"><rect class="cls-7" x="127.37" y="153.05" width="60.53" height="9.17"/></g><g id="Rectangle_263" data-name="Rectangle 263"><rect class="cls-7" x="170.17" y="124.31" width="60.53" height="9.17"/></g><g id="Rectangle_264" data-name="Rectangle 264"><rect class="cls-7" x="209.3" y="95.57" width="60.53" height="9.17"/></g><g id="Path_11695" data-name="Path 11695"><path class="cls-8" d="M175.16,162.74l12,3.11a4.55,4.55,0,0,0,5.55-3.26l.06-.25a114.06,114.06,0,0,0-2.93-54.62L188,100.38h-.61Z" transform="translate(-35.56 -64.72)"/></g><g id="Path_11696" data-name="Path 11696"><path class="cls-9" d="M153.43,160.71s.69-19.91,15-8.88,27.29,24.27,26,26.49-6.5,8.27-14.72,2.48S157.72,171,153.43,160.71Z" transform="translate(-35.56 -64.72)"/></g><g id="Rectangle_265" data-name="Rectangle 265"><rect class="cls-3" x="137.76" y="236.62" width="3.87" height="3.87" transform="translate(-166.34 231.01) rotate(-71.58)"/></g><g id="Path_11697" data-name="Path 11697"><path class="cls-3" d="M170.37,210.4l-1.19,3.84,5,.63,1.19-3.83Z" transform="translate(-35.56 -64.72)"/></g><g id="Path_11698" data-name="Path 11698"><path class="cls-9" d="M181.72,179.24l-12.54,33.28a.26.26,0,0,0,.15.33.17.17,0,0,0,.1,0l6.74-.26s19.25-30.53,19.1-32.64S193.91,171.26,181.72,179.24Z" transform="translate(-35.56 -64.72)"/></g><g id="Path_11699" data-name="Path 11699"><path class="cls-10" d="M174.55,162.13s-16.07-19.83-21.44-5.85L137,237.36l5.78,2.42,12.39-35.7Z" transform="translate(-35.56 -64.72)"/></g><g id="Group_474" data-name="Group 474"><g id="Path_11700" data-name="Path 11700"><path class="cls-2" d="M207.52,140.59l2.68-1.16a3.18,3.18,0,0,0,1.7,1.1c.9.1,6.14-1.33,6.14-1.33l3.68.92a.72.72,0,0,0,1-.3v0c.45-.91.6-1.83-1.23-3.67-2.61-2.66-4.29-2.29-4.29-2.29l-10.52,1.39a3.67,3.67,0,0,0,.59,5.16Z" transform="translate(-35.56 -64.72)"/></g><g id="Path_11701" data-name="Path 11701"><path class="cls-3" d="M207.51,140.36s-2.91-4.09.18-5.17C210.24,134.29,210.24,140.24,207.51,140.36Z" transform="translate(-35.56 -64.72)"/></g><g id="Path_11702" data-name="Path 11702"><path class="cls-6" d="M212.07,140.78a2.36,2.36,0,0,1-1.92-1l-2,.76a.25.25,0,0,1-.18-.46l2.2-.84a.25.25,0,0,1,.31.11,1.83,1.83,0,0,0,1.65.91,28.38,28.38,0,0,0,4.85-1.05.25.25,0,0,1,.31.16.26.26,0,0,1-.16.32,29.24,29.24,0,0,1-5,1.07Z" transform="translate(-35.56 -64.72)"/></g><g id="Path_11703" data-name="Path 11703"><path class="cls-6" d="M219.72,134.91a.23.23,0,0,1-.14,0,4.11,4.11,0,0,0-2.47-.72l-5.11.65a.24.24,0,0,1-.28-.22.25.25,0,0,1,.21-.28l5.14-.65a4.71,4.71,0,0,1,2.79.81.25.25,0,0,1,.07.34A.26.26,0,0,1,219.72,134.91Z" transform="translate(-35.56 -64.72)"/></g></g><g id="Path_11704" data-name="Path 11704"><path class="cls-8" d="M186.56,134l20.58-.34s4.53,9.64,2.5,10.14-19.27.45-19.27.45Z" transform="translate(-35.56 -64.72)"/></g><g id="Path_11705" data-name="Path 11705"><path class="cls-11" d="M188,103.44c-.47-1.22,0-2.45-.61-2.45-3,0-6.89-3.34-6.89-3.34,6.55,25.77-6.74,62.34-6.74,62.34l10,.31S194.34,119.88,188,103.44Z" transform="translate(-35.56 -64.72)"/></g><g id="Path_11706" data-name="Path 11706"><path class="cls-8" d="M160.18,111.67s1.58-10.12,10.48-14.6a19.91,19.91,0,0,0,7.08-5.76.82.82,0,0,1,1.16.06h0l2.81,3.45a19,19,0,0,1,3.92,8.33c1.58,8,4,23.81-.08,29.75-3.94,5.71-7.64,19.85-9.48,27.67a5.85,5.85,0,0,1-6.78,4.4c-7.52-1.41-19.94-4-19.52-5.65C150.38,157,160.18,111.67,160.18,111.67Z" transform="translate(-35.56 -64.72)"/></g><g id="Group_476" data-name="Group 476"><g id="Group_475" data-name="Group 475"><g id="Path_11707" data-name="Path 11707"><path class="cls-2" d="M149.16,156.75l.84,2.79a3.17,3.17,0,0,0-1.28,1.56c-.2.88.61,6.26.61,6.26L148,170.91a.71.71,0,0,0,.2,1h0c.85.55,1.75.8,3.79-.8,2.93-2.3,2.77-4,2.77-4l-.18-10.61a3.68,3.68,0,0,0-5.2,0A2.85,2.85,0,0,0,149.16,156.75Z" transform="translate(-35.56 -64.72)"/></g><g id="Path_11708" data-name="Path 11708"><path class="cls-3" d="M149.39,156.75s4.4-2.42,5.11.77C155.11,160.17,149.19,159.48,149.39,156.75Z" transform="translate(-35.56 -64.72)"/></g><g id="Path_11709" data-name="Path 11709"><path class="cls-6" d="M149.18,166.58a.25.25,0,0,1-.24-.2,28.62,28.62,0,0,1-.5-5,2.35,2.35,0,0,1,1.2-1.88l-.53-2.09a.25.25,0,0,1,.18-.3.25.25,0,0,1,.31.18l.58,2.28a.25.25,0,0,1-.14.29,1.85,1.85,0,0,0-1.1,1.53,28.42,28.42,0,0,0,.49,4.94.25.25,0,0,1-.2.3Z" transform="translate(-35.56 -64.72)"/></g><g id="Path_11710" data-name="Path 11710"><path class="cls-6" d="M153.65,169.79a.27.27,0,0,1-.16-.06.25.25,0,0,1,0-.35,4.17,4.17,0,0,0,1-2.37l-.06-5.16a.25.25,0,0,1,.25-.25.24.24,0,0,1,.25.25L155,167a4.68,4.68,0,0,1-1.12,2.69A.27.27,0,0,1,153.65,169.79Z" transform="translate(-35.56 -64.72)"/></g></g><g id="Path_11711" data-name="Path 11711"><path class="cls-7" d="M148.81,131.61c0,4.35-.25,16.08-.57,22.54A4,4,0,0,0,152,158.3h.42a4,4,0,0,0,3.71-3.4L159.39,132a4,4,0,0,1,.76-1.84l15.22-20a3.81,3.81,0,0,0,.77-1.88c.51-4,1.44-17.12-10-9.9-.58.37-11.65,20.65-14.16,25.26C152,123.63,148.82,127.72,148.81,131.61Z" transform="translate(-35.56 -64.72)"/></g></g><g id="Path_11712" data-name="Path 11712"><path class="cls-12" d="M137.66,239.78s0-.61-.75,0-2.39,3.06-.88,3.67,6.73,3.05,6.73,3.05h6.66s1.51-.61,0-1.83a7.86,7.86,0,0,0-4.22-1.22l-3-2.45Z" transform="translate(-35.56 -64.72)"/></g><g id="Path_11713" data-name="Path 11713"><path class="cls-12" d="M169.05,214.1s-1.23,1.83-.61,2.45,9.78,1.22,9.78,1.22h3.38s3.34-1.22.29-2.45c0,0-5.36-1.08-7.57-.84A21.63,21.63,0,0,1,169.05,214.1Z" transform="translate(-35.56 -64.72)"/></g><g id="Path_11714" data-name="Path 11714"><path class="cls-13" d="M176.08,93.35l6.32,20.48,1.86,2.45-1.86,4.89-2.65,26s8.07-14.54,8-20.57.56-6.61-.52-17.32-9.28-18.36-9.28-18.36Z" transform="translate(-35.56 -64.72)"/><path class="cls-5" d="M179.75,147.52a.22.22,0,0,1-.11,0,.36.36,0,0,1-.26-.39l2.64-26,0-.1,1.78-4.69-1.73-2.28a.34.34,0,0,1-.06-.12l-6.32-20.48a.38.38,0,0,1,.06-.34l1.84-2.45a.39.39,0,0,1,.26-.15.43.43,0,0,1,.29.1c.08.08,8.33,7.86,9.41,18.6a81.39,81.39,0,0,1,.56,12.85c0,1.29-.08,2.63,0,4.5.1,6.06-7.68,20.16-8,20.76A.39.39,0,0,1,179.75,147.52Zm3-26.27-2.45,24.05c2.08-4,7.1-14.05,7-18.71,0-1.89,0-3.24,0-4.55a78.6,78.6,0,0,0-.56-12.75C185.9,100,179.43,93,178,91.47l-1.47,2,6.25,20.23,1.82,2.4a.36.36,0,0,1,.05.36Z" transform="translate(-35.56 -64.72)"/></g><g id="Path_11715" data-name="Path 11715"><path class="cls-5" d="M194,155.46h0a.36.36,0,0,1-.35-.39c0-.12.71-11.41.27-22.41s-5.67-30.37-5.72-30.57a.37.37,0,0,1,.26-.46.38.38,0,0,1,.46.27c.05.19,5.32,19.67,5.75,30.73s-.27,22.37-.28,22.48A.37.37,0,0,1,194,155.46Z" transform="translate(-35.56 -64.72)"/></g></g><g id="Path_3318" data-name="Path 3318"><path class="cls-14" d="M184.81,71.38a.26.26,0,0,1-.25-.21.25.25,0,0,1,.21-.29c.49-.07,12.13-1.79,14.84-1a.24.24,0,0,1,.17.31.25.25,0,0,1-.31.17c-2.6-.79-14.51,1-14.63,1Z" transform="translate(-35.56 -64.72)"/></g><g id="Path_11716" data-name="Path 11716"><path class="cls-14" d="M184.25,77.55h-.05a.25.25,0,0,1-.2-.3,4.48,4.48,0,0,1,4.38-3.59.27.27,0,0,1,.28.25.25.25,0,0,1-.25.25h0a4,4,0,0,0-3.89,3.19A.25.25,0,0,1,184.25,77.55Z" transform="translate(-35.56 -64.72)"/></g><g id="Path_11717" data-name="Path 11717"><path class="cls-14" d="M135.66,243.46a.22.22,0,0,1-.15-.06,1.16,1.16,0,0,1-.44-.9,3.93,3.93,0,0,1,1-2.14.26.26,0,0,1,.36,0,.25.25,0,0,1,0,.34,3.29,3.29,0,0,0-.83,1.81.67.67,0,0,0,.25.48.25.25,0,0,1,0,.35A.26.26,0,0,1,135.66,243.46Z" transform="translate(-35.56 -64.72)"/></g><g id="Path_11718" data-name="Path 11718"><path class="cls-14" d="M183,217.16a.27.27,0,0,1-.12,0,.26.26,0,0,1-.09-.35.44.44,0,0,0,0-.4c-.19-.46-1.18-.83-1.51-.92a.25.25,0,0,1-.18-.3.26.26,0,0,1,.31-.18c.16,0,1.52.43,1.84,1.21a.93.93,0,0,1-.07.84A.26.26,0,0,1,183,217.16Z" transform="translate(-35.56 -64.72)"/></g></g></g></svg>