<svg id="Layer_1" data-name="Layer 1" xmlns="http://www.w3.org/2000/svg" viewBox="0 0 249.94 249.49"><defs><style>.cls-1{fill:#e4edfd;}.cls-2{fill:#fff;}.cls-3{fill:#e9aa97;}.cls-4{fill:#6ea0fc;}.cls-5{fill:#18387f;}.cls-6{fill:#eeb6a5;}.cls-7{fill:#cc9a8f;}.cls-8{fill:#022e5d;}.cls-9{fill:#135384;}.cls-10{fill:#022e5b;}.cls-11{fill:#fb9b05;}.cls-12{fill:#0e6ded;}.cls-13{fill:#f2eff8;}.cls-14{isolation:isolate;}</style></defs><title>start page 3 illustrtion</title><g id="Man_with_certificate" data-name="Man with certificate"><g id="Path_3250" data-name="Path 3250"><path class="cls-1" d="M60.15,243.05c-9.88-16.76-17.8-36.22-20-57.56C37.68,161,41.8,136.13,71.9,144.78c55.25,15.89,55.77,15.8,80.44-28.75,8.23-14.85,20-31.58,30.55-39.18,26.43-19.08,63.67,9.1,83.49,47.83,21.44,41.91,38.14,97,1.89,129.27C204,311.12,191.85,263.19,173,292.12s-40.45,16.13-57.08,12C102.87,300.92,86.94,288.47,60.15,243.05Z" transform="translate(-39.56 -61.03)"/></g><g id="Path_124-2" data-name="Path 124-2"><path class="cls-2" d="M113.47,181.46" transform="translate(-39.56 -61.03)"/></g><g id="Group_470" data-name="Group 470"><g id="Path_124-2-2" data-name="Path 124-2-2"><path class="cls-2" d="M125.25,185" transform="translate(-39.56 -61.03)"/></g><g id="Path_11650" data-name="Path 11650"><path class="cls-3" d="M189.49,294.57l.93,5.36-5.65.46-.7-5.63Z" transform="translate(-39.56 -61.03)"/></g><g id="Path_11651" data-name="Path 11651"><path class="cls-3" d="M148.56,294.76l-.49,5.42h5.67l.24-5.67Z" transform="translate(-39.56 -61.03)"/></g><g id="Path_125-2" data-name="Path 125-2"><path class="cls-4" d="M180.34,195.72l10.1,101.75s-6.37,2-7.23-.25-19.37-82.92-19.37-82.92-2.26,24-5.29,40.48c0,0,1.79,9.68-3.83,43.18,0,0-5.79,1.94-6.65-.74s-1-102-1-102Z" transform="translate(-39.56 -61.03)"/></g><g id="Path_127-2" data-name="Path 127-2"><path class="cls-5" d="M147.47,299.45l-.53.54a3.19,3.19,0,0,1-2.24.92h-2.77a4.33,4.33,0,0,0-2.08.54l-2.13,1.19-1,.25a1.65,1.65,0,0,0-1.11,1.48h0a.87.87,0,0,0,.87.87h17.73a.87.87,0,0,0,.86-.87v-4.92" transform="translate(-39.56 -61.03)"/></g><g id="Path_128-2" data-name="Path 128-2"><path class="cls-5" d="M191.82,298.82l3,2.17a2.36,2.36,0,0,0,1.11.42l2.84.3a2.14,2.14,0,0,1,1.21.55l1.69,1.54a.51.51,0,0,1,.16.37v.64a.44.44,0,0,1-.43.44H184.43a.45.45,0,0,1-.44-.4l-.55-5.66Z" transform="translate(-39.56 -61.03)"/></g><g id="Group_467" data-name="Group 467"><g id="Path_11652" data-name="Path 11652"><path class="cls-6" d="M175.47,132s-1.54,5.44.69,6.33-11.24,7.5-12.57-.5c0,0,2.29,0,.51-3.61S175.47,132,175.47,132Z" transform="translate(-39.56 -61.03)"/></g><g id="Path_11653" data-name="Path 11653"><path class="cls-3" d="M175.47,132s-13.14-1.33-11.37,2.22c0,0,.5,1.1.69,1.66,0,0,1.53,2.79,5.53,1A9.73,9.73,0,0,0,175.47,132Z" transform="translate(-39.56 -61.03)"/></g><g id="Path_11654" data-name="Path 11654"><path class="cls-6" d="M164.1,115.55a9,9,0,0,0-2.22,4.44,80.8,80.8,0,0,0-.4,8.08,7.17,7.17,0,0,0,10.63,6.41l.26-.16.32-.17c.76-.33,4.3-2.11,4.3-6.16a29.14,29.14,0,0,1,.41-4.47,7.19,7.19,0,0,0-6-8.18l-.46,0C167.52,115,164.1,114.87,164.1,115.55Z" transform="translate(-39.56 -61.03)"/></g><g id="Path_11655" data-name="Path 11655"><path class="cls-7" d="M161.66,122.69h0a.24.24,0,0,1-.24-.26,16.81,16.81,0,0,1,.45-3.6.25.25,0,0,1,.3-.19.26.26,0,0,1,.19.3,16.6,16.6,0,0,0-.44,3.5A.26.26,0,0,1,161.66,122.69Z" transform="translate(-39.56 -61.03)"/></g><g id="Path_11656" data-name="Path 11656"><path class="cls-8" d="M176.81,128.87c-.45-.89.45-2.84,0-2.65a12.81,12.81,0,0,0-1.78,1.32S175,124,175,122s-2.87-2.91-2.87-2.91H164c-3.19,0-3.64-3.19-3.58-5.3a1.78,1.78,0,0,1,1.84-1.75h0l9.69.41h.18c.71.08,5.27.71,6.6,3.39,1.43,2.92,0,9.72,0,9.72Z" transform="translate(-39.56 -61.03)"/></g><g id="Path_11657" data-name="Path 11657"><path class="cls-9" d="M172.1,119.35H164a3.4,3.4,0,0,1-2.54-1c-1.14-1.16-1.33-3.12-1.3-4.57a.27.27,0,0,1,.26-.24.24.24,0,0,1,.24.26c0,1.34.14,3.16,1.16,4.2a2.87,2.87,0,0,0,2.18.83h8.13a.25.25,0,0,1,.25.25A.25.25,0,0,1,172.1,119.35Z" transform="translate(-39.56 -61.03)"/></g><g id="Line_280" data-name="Line 280"><path class="cls-10" d="M162.84,123.51a.38.38,0,0,1-.21-.69l2.37-1.58a.37.37,0,0,1,.42.62L163,123.44A.31.31,0,0,1,162.84,123.51Z" transform="translate(-39.56 -61.03)"/></g><g id="Line_281" data-name="Line 281"><path class="cls-10" d="M171.93,124.14a.35.35,0,0,1-.21-.07l-3.17-2.21a.38.38,0,0,1-.09-.53.37.37,0,0,1,.52-.09l3.17,2.22a.37.37,0,0,1,.09.52A.36.36,0,0,1,171.93,124.14Z" transform="translate(-39.56 -61.03)"/></g><g id="Rectangle_256" data-name="Rectangle 256"><path class="cls-10" d="M169.66,124.44h0a.22.22,0,0,1-.22-.23v-.44a.22.22,0,0,1,.22-.22h0a.22.22,0,0,1,.22.22v.44A.22.22,0,0,1,169.66,124.44Z" transform="translate(-39.56 -61.03)"/></g><g id="Rectangle_257" data-name="Rectangle 257"><path class="cls-10" d="M164.77,124.44h0a.22.22,0,0,1-.22-.23v-.44a.22.22,0,0,1,.22-.22h0a.22.22,0,0,1,.22.22v.44A.22.22,0,0,1,164.77,124.44Z" transform="translate(-39.56 -61.03)"/></g><g id="Path_11658" data-name="Path 11658"><path class="cls-10" d="M166.37,131.3h-.05a.38.38,0,0,1-.37-.38.41.41,0,0,1,.39-.37,2,2,0,0,0,2-1.78.37.37,0,0,1,.42-.32.38.38,0,0,1,.33.41A2.78,2.78,0,0,1,166.37,131.3Z" transform="translate(-39.56 -61.03)"/></g><g id="Path_11659" data-name="Path 11659"><path class="cls-10" d="M166.55,127.7a.33.33,0,0,1-.17,0c-.27-.13-.71-.41-.68-.82a.64.64,0,0,1,.51-.54,5.39,5.39,0,0,0,.18-1.42.43.43,0,0,1,.38-.37.37.37,0,0,1,.37.38c0,.77-.11,1.71-.54,2l.11.06a.37.37,0,0,1,.17.5A.37.37,0,0,1,166.55,127.7Z" transform="translate(-39.56 -61.03)"/></g><g id="Path_11660" data-name="Path 11660"><path class="cls-7" d="M168.22,135.76A6.42,6.42,0,0,1,163,133.1a.25.25,0,1,1,.4-.3c3.36,4.29,8.17,1.67,8.22,1.64a.26.26,0,0,1,.34.1.25.25,0,0,1-.1.34A8.22,8.22,0,0,1,168.22,135.76Z" transform="translate(-39.56 -61.03)"/></g><g id="Path_11661" data-name="Path 11661"><path class="cls-6" d="M176.54,128.72s1.34,0,.89-2.59c0,0-.22-1-.66-1s-1.06.73-1.07,1.73" transform="translate(-39.56 -61.03)"/><path class="cls-7" d="M176.54,129a.25.25,0,0,1-.25-.25.25.25,0,0,1,.25-.25.68.68,0,0,0,.44-.26c.21-.25.42-.82.21-2-.09-.38-.3-.77-.42-.77-.28,0-.81.61-.82,1.48a.26.26,0,0,1-.26.25.24.24,0,0,1-.24-.25c0-1.13.71-2,1.32-2s.86,1,.91,1.17a3,3,0,0,1-.33,2.48A1.1,1.1,0,0,1,176.54,129Z" transform="translate(-39.56 -61.03)"/></g><g id="Ellipse_96" data-name="Ellipse 96"><circle class="cls-3" cx="131.2" cy="66.07" r="1.78"/></g><g id="Path_11662" data-name="Path 11662"><path class="cls-3" d="M161.39,128.88h.05a1.78,1.78,0,0,0,0-3.56Z" transform="translate(-39.56 -61.03)"/></g></g><g id="Path_11663" data-name="Path 11663"><path class="cls-11" d="M163,137.89s.36-.65.58-.31c1.3,1.93,5.88,7.42,12.57.74l2.71,2.22-10.55,61.34H158.5Z" transform="translate(-39.56 -61.03)"/></g><g id="Path_11664" data-name="Path 11664"><path class="cls-12" d="M176.18,138.29s7.2,5.9,9.82,6.55c2.4.6-2.88,50.51-3.8,59a1.38,1.38,0,0,1-1.37,1.23H167.14a1.24,1.24,0,0,1-1.24-1.24,1.37,1.37,0,0,1,0-.19Z" transform="translate(-39.56 -61.03)"/></g><g id="Path_11665" data-name="Path 11665"><path class="cls-12" d="M178.47,140l1,6.78-2.46.49,2.22,1.48s-8.87,23.4-9.12,27.84c0,0,2-28.49,6.16-38.19Z" transform="translate(-39.56 -61.03)"/><path class="cls-10" d="M170.12,177.13h0a.51.51,0,0,1-.47-.53s0-.1,0-.14c.18-2.4,2.17-28.79,6.19-38.21a.49.49,0,0,1,.75-.21l2.2,1.6a.5.5,0,0,1,.2.33l1,6.77a.52.52,0,0,1-.4.57l-1.28.25,1.21.81a.49.49,0,0,1,.19.6c-.08.23-8.64,22.85-9.07,27.53,0,.1,0,.15,0,.16A.5.5,0,0,1,170.12,177.13Zm6.38-37.91c-2.72,7-4.5,22.32-5.33,31,2.34-7.64,6.6-19,7.46-21.28l-1.89-1.25a.51.51,0,0,1-.21-.52.49.49,0,0,1,.39-.39l2-.4-.91-6.1Z" transform="translate(-39.56 -61.03)"/></g><g id="Path_11666" data-name="Path 11666"><path class="cls-12" d="M148,141.92a1,1,0,0,1,1-1h0c3.18.06,13,0,14.07-3.3,1.22-3.66-1,58-1.27,66.49a1,1,0,0,1-1,1H147.73a1,1,0,0,1-1-1h0Z" transform="translate(-39.56 -61.03)"/></g><g id="Path_11667" data-name="Path 11667"><path class="cls-3" d="M163.84,137.58" transform="translate(-39.56 -61.03)"/></g><g id="Path_11668" data-name="Path 11668"><path class="cls-12" d="M163.22,137.46,160,139.8l-2.64,5.78,1.92,1-1.72,1.72s4.92,27.35,5.17,28.34S163.22,137.46,163.22,137.46Z" transform="translate(-39.56 -61.03)"/><path class="cls-10" d="M162.74,177.14a.51.51,0,0,1-.49-.39c-.25-1-5-27.25-5.19-28.37a.55.55,0,0,1,.14-.44l1.24-1.24-1.31-.68a.5.5,0,0,1-.22-.65l2.63-5.78a.53.53,0,0,1,.16-.2l3.23-2.34a.51.51,0,0,1,.52,0,.5.5,0,0,1,.27.45s-.06,9.79-.15,19.58c-.12,13.71-.16,18-.36,19.42v0h0c-.09.59-.22.61-.4.63Zm-4.65-28.68c1.22,6.75,3.19,17.64,4.3,23.68.13-7.36.26-22.42.33-33.7l-2.32,1.68L158,145.35l1.5.78a.52.52,0,0,1,.27.36.49.49,0,0,1-.15.43Z" transform="translate(-39.56 -61.03)"/></g><g id="Path_11669" data-name="Path 11669"><path class="cls-9" d="M152.21,305.79c-1.11,0-2.22-.05-2.29-.05a.5.5,0,1,1,.05-1s2.54.11,3.77,0c.5,0,.73-.21.73-.34l.13-3.74a.48.48,0,0,1,.51-.48.49.49,0,0,1,.48.51l-.12,3.69h0a1.11,1.11,0,0,1-.26.75,1.92,1.92,0,0,1-1.38.61C153.38,305.77,152.8,305.79,152.21,305.79Z" transform="translate(-39.56 -61.03)"/></g><g id="Path_11670" data-name="Path 11670"><path class="cls-9" d="M200.17,303a.5.5,0,0,1-.49-.43,2.65,2.65,0,0,0-.92-.37l-3.73-.51-3.52-2.48a.5.5,0,1,1,.58-.82l3.32,2.35,3.53.47c.55.13,1.73.49,1.73,1.29A.5.5,0,0,1,200.17,303Zm-.47-.4h0Z" transform="translate(-39.56 -61.03)"/></g><g id="Path_11671" data-name="Path 11671"><path class="cls-12" d="M186,144.72s16.18-14.24,20.17-14.85c2.74-.42,13.93,5.77-7.17,22.38-5.63,4.43-11.1,8.69-13.5,8.73C178.94,161.1,186,144.72,186,144.72Z" transform="translate(-39.56 -61.03)"/></g><g id="Path_11672" data-name="Path 11672"><path class="cls-12" d="M152.55,141.27s-17.14-16.3-20.91-14.85-13.93,5.77,7.17,22.38c5.63,4.43,10.56,10.91,13,10.95C158.35,159.87,152.55,141.27,152.55,141.27Z" transform="translate(-39.56 -61.03)"/></g><g id="Group_468" data-name="Group 468"><g id="Path_11673" data-name="Path 11673"><path class="cls-6" d="M198.5,106.33l-.75-4.27s.19-1.48,2.42-1.67,4.63-2.78,3.71-4.63,1.11-3.34,1.48-2.6,4.08,4.45,2,6.86a15.53,15.53,0,0,0-2.78,4.64A11.22,11.22,0,0,1,198.5,106.33Z" transform="translate(-39.56 -61.03)"/></g><g id="Path_11674" data-name="Path 11674"><path class="cls-7" d="M199.86,100.68a.25.25,0,0,1,0-.5,4.56,4.56,0,0,0,3.95-3.11.25.25,0,0,1,.31-.16.26.26,0,0,1,.16.32,5.05,5.05,0,0,1-4.38,3.45Z" transform="translate(-39.56 -61.03)"/></g><g id="Path_11675" data-name="Path 11675"><path class="cls-7" d="M207.24,100.47a.25.25,0,0,1-.19-.09.24.24,0,0,1,0-.35,2.19,2.19,0,0,0,.54-2.63,9.54,9.54,0,0,0-1.67-3,.25.25,0,0,1,.38-.32,10,10,0,0,1,1.75,3.14,2.67,2.67,0,0,1-.68,3.2A.23.23,0,0,1,207.24,100.47Z" transform="translate(-39.56 -61.03)"/></g><g id="Line_282" data-name="Line 282"><path class="cls-7" d="M198.59,106.3a.26.26,0,0,1-.25-.2l-.75-3.53a.25.25,0,1,1,.49-.1l.75,3.53a.25.25,0,0,1-.19.3Z" transform="translate(-39.56 -61.03)"/></g></g><g id="Group_469" data-name="Group 469"><g id="Path_11676" data-name="Path 11676"><path class="cls-6" d="M140.56,106.33l.74-4.27s-.18-1.48-2.41-1.67-4.64-2.78-3.71-4.63-1.11-3.34-1.48-2.6-4.08,4.45-2,6.86a15.53,15.53,0,0,1,2.78,4.64A11.2,11.2,0,0,0,140.56,106.33Z" transform="translate(-39.56 -61.03)"/></g><g id="Path_11677" data-name="Path 11677"><path class="cls-7" d="M139.2,100.68h0a5.05,5.05,0,0,1-4.38-3.45.25.25,0,0,1,.48-.16,4.53,4.53,0,0,0,3.95,3.11.24.24,0,0,1,.22.27A.25.25,0,0,1,139.2,100.68Z" transform="translate(-39.56 -61.03)"/></g><g id="Path_11678" data-name="Path 11678"><path class="cls-7" d="M131.81,100.47a.25.25,0,0,1-.16-.06,2.68,2.68,0,0,1-.66-3.23,9.74,9.74,0,0,1,1.73-3.11.25.25,0,0,1,.35,0,.24.24,0,0,1,0,.35,9.47,9.47,0,0,0-1.65,3A2.21,2.21,0,0,0,132,100a.24.24,0,0,1,0,.35A.25.25,0,0,1,131.81,100.47Z" transform="translate(-39.56 -61.03)"/></g><g id="Line_283" data-name="Line 283"><path class="cls-7" d="M140.47,106.3h-.06a.26.26,0,0,1-.19-.3l.76-3.53a.25.25,0,1,1,.48.1l-.75,3.53A.25.25,0,0,1,140.47,106.3Z" transform="translate(-39.56 -61.03)"/></g></g><g id="Path_11679" data-name="Path 11679"><path class="cls-12" d="M141.34,103.78s-3.44,7-2.15,25.24-14.8,9.82-13.66,1.29,8.37-25.64,8.37-25.64Z" transform="translate(-39.56 -61.03)"/></g><g id="Path_11680" data-name="Path 11680"><path class="cls-12" d="M197.62,103.74s3.6,10.94,1.41,28.66,14.44,10.31,13.72,1.94-8.3-29.26-8.3-29.26Z" transform="translate(-39.56 -61.03)"/></g><g id="Rectangle_258" data-name="Rectangle 258"><rect class="cls-13" x="98.81" y="0.66" width="63.51" height="37.21" rx="4"/></g><g id="Path_11681" data-name="Path 11681"><path class="cls-10" d="M138.48,71.92a.51.51,0,0,1-.5-.5V64.68A3.66,3.66,0,0,1,141.64,61h6.42a.5.5,0,0,1,0,1h-6.42A2.66,2.66,0,0,0,139,64.68v6.74A.5.5,0,0,1,138.48,71.92Z" transform="translate(-39.56 -61.03)"/></g><g id="Path_11682" data-name="Path 11682"><path class="cls-10" d="M201.89,71.76a.5.5,0,0,1-.5-.5V64.84a2.65,2.65,0,0,0-2.65-2.65H192a.51.51,0,0,1-.5-.5.5.5,0,0,1,.5-.5h6.74a3.66,3.66,0,0,1,3.65,3.65v6.42A.5.5,0,0,1,201.89,71.76Z" transform="translate(-39.56 -61.03)"/></g><g id="Path_11683" data-name="Path 11683"><path class="cls-10" d="M148.21,99.14h-6.73a3.65,3.65,0,0,1-3.65-3.65V89.07a.5.5,0,0,1,.5-.5.5.5,0,0,1,.5.5v6.42a2.65,2.65,0,0,0,2.65,2.65h6.73a.5.5,0,0,1,.5.5A.5.5,0,0,1,148.21,99.14Z" transform="translate(-39.56 -61.03)"/></g><g id="Path_11684" data-name="Path 11684"><path class="cls-10" d="M198.67,99.28h-7.13a.5.5,0,0,1-.5-.5.5.5,0,0,1,.5-.5h7.13a2.65,2.65,0,0,0,2.65-2.65V88.46a.5.5,0,0,1,.5-.5.51.51,0,0,1,.5.5v7.17A3.65,3.65,0,0,1,198.67,99.28Z" transform="translate(-39.56 -61.03)"/></g><g id="Crtificate" class="cls-14"><g class="cls-14"><path class="cls-8" d="M148.35,82.38l.22-.15a1.42,1.42,0,0,1,.57-.24c.25,0,.52.22.81.67a1.43,1.43,0,0,1,.26.67.57.57,0,0,1-.16.42,2.28,2.28,0,0,1-.38.3l-.41.25a4,4,0,0,1-.81.31,3.9,3.9,0,0,1-1.18.2,4.62,4.62,0,0,1-1.16-.15,5.28,5.28,0,0,1-2.31-1.37A4.3,4.3,0,0,1,143,82a4.67,4.67,0,0,1-.32-1.73,4.4,4.4,0,0,1,.32-1.7,3.63,3.63,0,0,1,.8-1.26,4.64,4.64,0,0,1,1.11-.84,4.85,4.85,0,0,1,2.36-.64,3.8,3.8,0,0,1,1.14.17,4.24,4.24,0,0,1,.89.36l.29.16.33.22a.72.72,0,0,1,.31.57A1.11,1.11,0,0,1,150,78c-.31.44-.59.65-.84.65a1.21,1.21,0,0,1-.61-.26,2.11,2.11,0,0,0-1.35-.41,2.59,2.59,0,0,0-1.53.54,2.07,2.07,0,0,0-.6.75,2.35,2.35,0,0,0-.24,1.08,2.42,2.42,0,0,0,.24,1.09,2,2,0,0,0,.61.75,2.53,2.53,0,0,0,1.52.53,2.34,2.34,0,0,0,.71-.1A1.55,1.55,0,0,0,148.35,82.38Z" transform="translate(-39.56 -61.03)"/><path class="cls-8" d="M155.3,78.44a.73.73,0,0,1,.38.24.85.85,0,0,1,.15.56,1.94,1.94,0,0,1-.23.84.71.71,0,0,1-.66.45,1,1,0,0,1-.42-.09,1.23,1.23,0,0,0-.52-.1.94.94,0,0,0-.6.23.69.69,0,0,0-.29.55v2.52c0,.19,0,.33,0,.42a1.07,1.07,0,0,1-.12.32c-.12.2-.43.31-.93.31a1.29,1.29,0,0,1-.83-.21A.72.72,0,0,1,151,84V79.41a4,4,0,0,1,0-.42,1.05,1.05,0,0,1,.1-.3c.11-.22.43-.33.94-.33s.78.09.9.28a.67.67,0,0,1,.13.39l.18-.2a1.82,1.82,0,0,1,.48-.32,1.39,1.39,0,0,1,.65-.21,3.23,3.23,0,0,1,.48,0A2.62,2.62,0,0,1,155.3,78.44Z" transform="translate(-39.56 -61.03)"/><path class="cls-8" d="M160.16,80.49l-.78,0V82.1a.78.78,0,0,0,.1.46.44.44,0,0,0,.38.15,2.63,2.63,0,0,1,.44,0,.68.68,0,0,1,.31.11c.19.1.28.37.28.8s-.11.81-.34.93a1.11,1.11,0,0,1-.31.1l-.41,0a2.77,2.77,0,0,1-1.89-.57,2.41,2.41,0,0,1-.65-1.9V80.44a3.74,3.74,0,0,1-.49,0,.55.55,0,0,1-.44-.21,1.06,1.06,0,0,1-.17-.7,3,3,0,0,1,.06-.71.61.61,0,0,1,.17-.32.73.73,0,0,1,.48-.15l.39,0V77.2a3.81,3.81,0,0,1,0-.41.81.81,0,0,1,.11-.29c.11-.2.41-.3.93-.3s.86.15,1,.45a2.19,2.19,0,0,1,.06.61v1.18a7.12,7.12,0,0,1,.8,0h.4a1,1,0,0,1,.32.12c.21.1.31.41.31.92s-.1.82-.32.93a1.28,1.28,0,0,1-.32.1Z" transform="translate(-39.56 -61.03)"/><path class="cls-8" d="M163.85,77.19a.52.52,0,0,1-.32.25,2,2,0,0,1-.61.07,2,2,0,0,1-.6-.07.52.52,0,0,1-.32-.25,1,1,0,0,1-.11-.32,3.87,3.87,0,0,1,0-.42,3.81,3.81,0,0,1,0-.41,1.22,1.22,0,0,1,.1-.31c.12-.21.43-.32.94-.32s.81.11.91.32a1.07,1.07,0,0,1,.12.32c0,.1,0,.23,0,.42s0,.32,0,.41A1.16,1.16,0,0,1,163.85,77.19Zm-2,2.23a3.66,3.66,0,0,1,0-.41,1.16,1.16,0,0,1,.1-.32c.12-.21.43-.31.94-.31a1.27,1.27,0,0,1,.82.2.68.68,0,0,1,.21.52,3.13,3.13,0,0,1,0,.34v4.2c0,.19,0,.33,0,.42a1.07,1.07,0,0,1-.12.32c-.1.2-.41.31-.92.31s-.81-.11-.93-.33a1.22,1.22,0,0,1-.1-.31,3.87,3.87,0,0,1,0-.42Z" transform="translate(-39.56 -61.03)"/><path class="cls-8" d="M168.63,78.38c.55,0,.88.15,1,.45a2,2,0,0,1,.07.6,1.86,1.86,0,0,1-.07.59.59.59,0,0,1-.25.32,1.45,1.45,0,0,1-.73.15l-.77,0v3.21a1.61,1.61,0,0,1-.11.68.61.61,0,0,1-.35.3,2.09,2.09,0,0,1-.61.07,1.86,1.86,0,0,1-.59-.08.55.55,0,0,1-.32-.25.94.94,0,0,1-.11-.32,2.43,2.43,0,0,1,0-.42V80.45h-.43a.73.73,0,0,1-.45-.14,1.29,1.29,0,0,1-.23-.88c0-.66.24-1,.71-1h.4v-.64a2.46,2.46,0,0,1,.66-1.67,2.4,2.4,0,0,1,1.91-.75h.41a1.07,1.07,0,0,1,.32.12c.21.1.32.41.32.92a1.37,1.37,0,0,1-.2.83.75.75,0,0,1-.53.22h-.34c-.29,0-.44.1-.44.3v.66Zm3.73-1.19a.52.52,0,0,1-.32.25,2,2,0,0,1-.61.07,2,2,0,0,1-.6-.07.49.49,0,0,1-.32-.25,1,1,0,0,1-.11-.32,3.87,3.87,0,0,1,0-.42,3.81,3.81,0,0,1,0-.41,1.22,1.22,0,0,1,.1-.31c.11-.21.43-.32.94-.32s.81.11.91.32a1,1,0,0,1,.11.32,2.37,2.37,0,0,1,0,.42,2.25,2.25,0,0,1,0,.41A.86.86,0,0,1,172.36,77.19Zm-2,2.23a3.66,3.66,0,0,1,0-.41,1.16,1.16,0,0,1,.1-.32c.11-.21.43-.31.94-.31a1.23,1.23,0,0,1,.81.2.65.65,0,0,1,.22.52,3.13,3.13,0,0,1,0,.34v4.2a2.31,2.31,0,0,1,0,.42,1,1,0,0,1-.11.32c-.1.2-.41.31-.92.31s-.82-.11-.93-.33a1.22,1.22,0,0,1-.1-.31,3.87,3.87,0,0,1,0-.42Z" transform="translate(-39.56 -61.03)"/><path class="cls-8" d="M175.42,81.52a1,1,0,0,0,.34.8,1.07,1.07,0,0,0,.71.28,1.32,1.32,0,0,0,.71-.22,1.08,1.08,0,0,1,.53-.23c.24,0,.54.22.88.64a1.08,1.08,0,0,1,.28.62c0,.31-.22.59-.66.86a2.87,2.87,0,0,1-1.68.48,3.43,3.43,0,0,1-2.15-.81,2.78,2.78,0,0,1-.81-1,3.32,3.32,0,0,1-.31-1.42,3.2,3.2,0,0,1,.31-1.4,3,3,0,0,1,.81-1,3.38,3.38,0,0,1,2.12-.79,3,3,0,0,1,.89.13,2.9,2.9,0,0,1,.64.24l.19.12.33.23a.69.69,0,0,1,.32.55,1.32,1.32,0,0,1-.26.69c-.28.44-.56.66-.82.66a1.35,1.35,0,0,1-.65-.27.91.91,0,0,0-.62-.2,1.11,1.11,0,0,0-.75.29A1,1,0,0,0,175.42,81.52Z" transform="translate(-39.56 -61.03)"/><path class="cls-8" d="M183.75,79c.05-.44.36-.67.95-.67a2.31,2.31,0,0,1,.69.08.46.46,0,0,1,.32.25.94.94,0,0,1,.11.32,3.66,3.66,0,0,1,0,.41v4.2a3.81,3.81,0,0,1,0,.41,1.16,1.16,0,0,1-.1.32c-.11.21-.39.31-.82.31a1.62,1.62,0,0,1-.88-.16.67.67,0,0,1-.26-.47,1.68,1.68,0,0,1-1.48.63,2.64,2.64,0,0,1-1.93-.94,3.15,3.15,0,0,1-.88-2.21,3.05,3.05,0,0,1,.89-2.19,2.67,2.67,0,0,1,2-.94,1.86,1.86,0,0,1,.75.14,1.31,1.31,0,0,1,.46.27A2.29,2.29,0,0,1,183.75,79Zm-2.18,2.5a1,1,0,0,0,.31.71,1,1,0,0,0,.75.32,1,1,0,0,0,.74-.32,1.05,1.05,0,0,0,.3-.72,1.1,1.1,0,0,0-.29-.72.91.91,0,0,0-.75-.34,1,1,0,0,0-.77.34A1.06,1.06,0,0,0,181.57,81.53Z" transform="translate(-39.56 -61.03)"/><path class="cls-8" d="M190.47,80.49l-.78,0V82.1a.78.78,0,0,0,.1.46.45.45,0,0,0,.39.15,2.56,2.56,0,0,1,.43,0,.76.76,0,0,1,.32.11c.18.1.27.37.27.8s-.11.81-.33.93a1.28,1.28,0,0,1-.32.1l-.4,0a2.78,2.78,0,0,1-1.9-.57,2.41,2.41,0,0,1-.65-1.9V80.44a3.6,3.6,0,0,1-.49,0,.55.55,0,0,1-.44-.21,1.12,1.12,0,0,1-.17-.7,3,3,0,0,1,.06-.71.61.61,0,0,1,.17-.32.73.73,0,0,1,.48-.15l.39,0V77.2a3.81,3.81,0,0,1,0-.41.81.81,0,0,1,.11-.29q.17-.3.93-.3c.54,0,.87.15,1,.45a2.19,2.19,0,0,1,.06.61v1.18a7.12,7.12,0,0,1,.8,0h.41a1,1,0,0,1,.31.12c.21.1.32.41.32.92s-.11.82-.33.93a1.16,1.16,0,0,1-.32.1Z" transform="translate(-39.56 -61.03)"/><path class="cls-8" d="M198,80.77a1.46,1.46,0,0,1-.36,1.09,1.15,1.15,0,0,1-.81.36H194a.65.65,0,0,0,.4.56,1.59,1.59,0,0,0,.79.23,3.17,3.17,0,0,0,1.09-.15l.13,0a1.44,1.44,0,0,1,.48-.13q.39,0,.66.54a1.27,1.27,0,0,1,.16.55c0,.72-.85,1.07-2.56,1.07a3.89,3.89,0,0,1-1.57-.3,2.85,2.85,0,0,1-1.08-.81,3.49,3.49,0,0,1-.75-2.17,3.13,3.13,0,0,1,1-2.42,3.46,3.46,0,0,1,2.45-.91,2.71,2.71,0,0,1,2.44,1.18A2.36,2.36,0,0,1,198,80.77Zm-2.53.35c.3,0,.46-.12.46-.38a.54.54,0,0,0-.21-.44.89.89,0,0,0-.6-.17,1.23,1.23,0,0,0-.78.31.92.92,0,0,0-.38.68Z" transform="translate(-39.56 -61.03)"/></g></g></g></g></svg>